<svg xmlns="http://www.w3.org/2000/svg" width="20" height="20" viewBox="0 0 20 20"><rect width="20" height="20" fill="rgba(253,73,198,0.35)" opacity="0"/><g transform="translate(1.667 3.333)"><path d="M16.666,19.107c-.074,0-.15,0-.224-.01l-.015,0a17.408,17.408,0,0,1-7.552-2.686,17.183,17.183,0,0,1-5.251-5.252A17.4,17.4,0,0,1,.938,3.571V3.558A2.5,2.5,0,0,1,3.425.834H5.943a2.511,2.511,0,0,1,2.474,2.15v.008a9.859,9.859,0,0,0,.538,2.159,2.506,2.506,0,0,1-.563,2.635l-.6.6a12.494,12.494,0,0,0,3.821,3.821l.6-.6a2.5,2.5,0,0,1,2.641-.566,9.854,9.854,0,0,0,2.157.537h.009a2.5,2.5,0,0,1,2.149,2.527V16.6a2.5,2.5,0,0,1-2.5,2.507ZM16.6,17.438a.834.834,0,0,0,.9-.834V14.1q0-.01,0-.021a.834.834,0,0,0-.714-.846,11.527,11.527,0,0,1-2.519-.628.832.832,0,0,0-.881.187l-1.055,1.055a.833.833,0,0,1-1,.135A14.16,14.16,0,0,1,6.017,8.67a.833.833,0,0,1,.135-1L7.211,6.611a.833.833,0,0,0,.184-.875,11.533,11.533,0,0,1-.629-2.522A.836.836,0,0,0,5.943,2.5H3.425a.833.833,0,0,0-.828.9,15.729,15.729,0,0,0,2.428,6.852l0,.006A15.505,15.505,0,0,0,9.772,15l.007,0A15.733,15.733,0,0,0,16.6,17.438Z" transform="translate(-1.667 -3.333)" fill="#3f3f3f"/></g></svg>