<svg xmlns="http://www.w3.org/2000/svg" width="20" height="20" viewBox="0 0 20 20"><rect width="20" height="20" fill="rgba(253,73,198,0.35)" opacity="0"/><g transform="translate(5.833 1.667)"><path d="M12.5.834H15a.833.833,0,0,1,.833.833V5A.833.833,0,0,1,15,5.833H12.5V7.5H15a.833.833,0,0,1,.808,1.035l-.833,3.334a.833.833,0,0,1-.808.631H12.5v5.833a.833.833,0,0,1-.833.833H8.333a.833.833,0,0,1-.833-.833V12.5H5.833A.833.833,0,0,1,5,11.667V8.333A.833.833,0,0,1,5.833,7.5H7.5V5.833A5.005,5.005,0,0,1,12.5.834ZM14.167,2.5H12.5A3.337,3.337,0,0,0,9.166,5.833v2.5a.833.833,0,0,1-.833.833H6.666v1.667H8.333a.833.833,0,0,1,.833.833V17.5h1.667V11.667a.833.833,0,0,1,.833-.833h1.849l.417-1.667H11.667a.833.833,0,0,1-.833-.833v-2.5A1.668,1.668,0,0,1,12.5,4.167h1.667Z" transform="translate(-5.833 -1.667)" fill="#3f3f3f"/></g></svg>