<svg xmlns="http://www.w3.org/2000/svg" xmlns:xlink="http://www.w3.org/1999/xlink" width="1313.894" height="1325.35" viewBox="0 0 1313.894 1325.35">
  <defs>
    <clipPath id="clip-path">
      <rect id="Rectangle_26" data-name="Rectangle 26" width="1196.291" height="726.045" fill="none"/>
    </clipPath>
  </defs>
  <g id="Group_57" data-name="Group 57" transform="translate(-324.331 250.355)">
    <g id="Component_1_9" data-name="Component 1 – 9" transform="translate(324.331 -104.564) rotate(-7)">
      <g id="Group_39" data-name="Group 39" clip-path="url(#clip-path)">
        <path id="Path_197" data-name="Path 197" d="M379.445,726.045c-53.641,0-104.462-5.11-151.036-15.424C102.731,682.786,23.129,620.348,4.263,534.81s25.3-183.775,124.362-276.62C227.453,165.566,369.168,89.3,527.665,43.459S842.5-12.348,967.883,15.426c125.678,27.835,205.28,90.271,224.147,175.811s-25.3,183.775-124.363,276.618c-98.828,92.625-240.543,168.888-399.04,214.732-99.622,28.817-198.415,43.459-289.182,43.459M816.721,2.77c-88.772,0-187.2,13.892-288.5,43.193C201.957,140.338-32.107,359.348,6.451,534.179s335.359,240.28,661.625,145.9c158.182-45.755,299.584-121.836,398.163-214.225,98.346-92.174,142.24-189.479,123.6-273.989C1163.254,71.323,1013.862,2.77,816.721,2.77" transform="translate(0 0)"/>
      </g>
    </g>
    <g id="Component_1_10" data-name="Component 1 – 10" transform="translate(343.552 80.943) rotate(-7)">
      <g id="Group_39-2" data-name="Group 39" clip-path="url(#clip-path)">
        <path id="Path_197-2" data-name="Path 197" d="M379.445,726.045c-53.641,0-104.462-5.11-151.036-15.424C102.731,682.786,23.129,620.348,4.263,534.81s25.3-183.775,124.362-276.62C227.453,165.566,369.168,89.3,527.665,43.459S842.5-12.348,967.883,15.426c125.678,27.835,205.28,90.271,224.147,175.811s-25.3,183.775-124.363,276.618c-98.828,92.625-240.543,168.888-399.04,214.732-99.622,28.817-198.415,43.459-289.182,43.459M816.721,2.77c-88.772,0-187.2,13.892-288.5,43.193C201.957,140.338-32.107,359.348,6.451,534.179s335.359,240.28,661.625,145.9c158.182-45.755,299.584-121.836,398.163-214.225,98.346-92.174,142.24-189.479,123.6-273.989C1163.254,71.323,1013.862,2.77,816.721,2.77" transform="translate(0 0)"/>
      </g>
    </g>
    <g id="Component_1_13" data-name="Component 1 – 13" transform="translate(343.552 217.943) rotate(-7)">
      <g id="Group_39-3" data-name="Group 39" clip-path="url(#clip-path)">
        <path id="Path_197-3" data-name="Path 197" d="M379.445,726.045c-53.641,0-104.462-5.11-151.036-15.424C102.731,682.786,23.129,620.348,4.263,534.81s25.3-183.775,124.362-276.62C227.453,165.566,369.168,89.3,527.665,43.459S842.5-12.348,967.883,15.426c125.678,27.835,205.28,90.271,224.147,175.811s-25.3,183.775-124.363,276.618c-98.828,92.625-240.543,168.888-399.04,214.732-99.622,28.817-198.415,43.459-289.182,43.459M816.721,2.77c-88.772,0-187.2,13.892-288.5,43.193C201.957,140.338-32.107,359.348,6.451,534.179s335.359,240.28,661.625,145.9c158.182-45.755,299.584-121.836,398.163-214.225,98.346-92.174,142.24-189.479,123.6-273.989C1163.254,71.323,1013.862,2.77,816.721,2.77" transform="translate(0 0)"/>
      </g>
    </g>
    <g id="Component_1_11" data-name="Component 1 – 11" transform="translate(362.368 354.361) rotate(-7)">
      <g id="Group_39-4" data-name="Group 39" clip-path="url(#clip-path)">
        <path id="Path_197-4" data-name="Path 197" d="M379.445,726.045c-53.641,0-104.462-5.11-151.036-15.424C102.731,682.786,23.129,620.348,4.263,534.81s25.3-183.775,124.362-276.62C227.453,165.566,369.168,89.3,527.665,43.459S842.5-12.348,967.883,15.426c125.678,27.835,205.28,90.271,224.147,175.811s-25.3,183.775-124.363,276.618c-98.828,92.625-240.543,168.888-399.04,214.732-99.622,28.817-198.415,43.459-289.182,43.459M816.721,2.77c-88.772,0-187.2,13.892-288.5,43.193C201.957,140.338-32.107,359.348,6.451,534.179s335.359,240.28,661.625,145.9c158.182-45.755,299.584-121.836,398.163-214.225,98.346-92.174,142.24-189.479,123.6-273.989C1163.254,71.323,1013.862,2.77,816.721,2.77" transform="translate(0 0)"/>
      </g>
    </g>
  </g>
</svg>
