<svg xmlns="http://www.w3.org/2000/svg" width="20" height="20" viewBox="0 0 20 20"><rect width="20" height="20" fill="rgba(253,73,198,0.35)" opacity="0"/><g transform="translate(1.667 1.667)"><path d="M13.333,5.834a5.84,5.84,0,0,1,5.833,5.833V17.5a.833.833,0,0,1-.833.833H15a.833.833,0,0,1-.833-.833V11.667a.833.833,0,1,0-1.666,0V17.5a.833.833,0,0,1-.833.833H8.333A.833.833,0,0,1,7.5,17.5V11.667A5.84,5.84,0,0,1,13.333,5.834ZM17.5,16.667v-5a4.167,4.167,0,1,0-8.333,0v5h1.667v-5a2.5,2.5,0,1,1,5,0v5Z" transform="translate(-1.667 -1.667)" fill="#3f3f3f"/><path d="M0-.833H3.333A.833.833,0,0,1,4.167,0V10a.833.833,0,0,1-.833.833H0A.833.833,0,0,1-.833,10V0A.833.833,0,0,1,0-.833ZM2.5.833H.833V9.167H2.5Z" transform="translate(0 5.833)" fill="#3f3f3f"/><path d="M1.667-.833a2.5,2.5,0,1,1-2.5,2.5A2.5,2.5,0,0,1,1.667-.833Zm0,3.333a.833.833,0,1,0-.833-.833A.834.834,0,0,0,1.667,2.5Z" transform="translate(0 0)" fill="#3f3f3f"/></g></svg>