<svg xmlns="http://www.w3.org/2000/svg" xmlns:xlink="http://www.w3.org/1999/xlink" width="1313.894" height="1401.995" viewBox="0 0 1313.894 1401.995">
  <defs>
    <clipPath id="clip-path">
      <rect id="Rectangle_50" data-name="Rectangle 50" width="1163.376" height="785.134" fill="none"/>
    </clipPath>
    <clipPath id="clip-path-2">
      <rect id="Rectangle_51" data-name="Rectangle 51" width="1166.273" height="777.738" fill="none"/>
    </clipPath>
    <clipPath id="clip-path-3">
      <rect id="Rectangle_48" data-name="Rectangle 48" width="1194.24" height="854.945" transform="translate(0 0.001)" fill="none"/>
    </clipPath>
    <clipPath id="clip-path-4">
      <rect id="Rectangle_26" data-name="Rectangle 26" width="1196.291" height="726.045" fill="none"/>
    </clipPath>
  </defs>
  <g id="svg__work" transform="translate(-329.331 282.995)">
    <g id="Group_84" data-name="Group 84">
      <g id="Group_73" data-name="Group 73" transform="translate(404.59 242.866)">
        <g id="Group_72" data-name="Group 72" clip-path="url(#clip-path)">
          <text id="C" transform="matrix(0.741, -0.671, 0.671, 0.741, 160.412, 297.473)" font-size="47.132" font-family="SegoeUI, Segoe UI"><tspan x="0" y="0">C</tspan></text>
          <text id="R" transform="matrix(0.77, -0.638, 0.638, 0.77, 190.608, 270.467)" font-size="47.132" font-family="SegoeUI, Segoe UI"><tspan x="0" y="0">R</tspan></text>
          <text id="E" transform="matrix(0.793, -0.61, 0.61, 0.793, 219.94, 246.43)" font-size="47.132" font-family="SegoeUI, Segoe UI"><tspan x="0" y="0">E</tspan></text>
          <text id="A" transform="matrix(0.814, -0.581, 0.581, 0.814, 245.9, 226.578)" font-size="47.132" font-family="SegoeUI, Segoe UI"><tspan x="0" y="0">A</tspan></text>
          <text id="T" transform="matrix(0.832, -0.555, 0.555, 0.832, 276.177, 205.121)" font-size="47.132" font-family="SegoeUI, Segoe UI"><tspan x="0" y="0">T</tspan></text>
          <text id="I" transform="matrix(0.846, -0.533, 0.533, 0.846, 305.765, 185.636)" font-size="47.132" font-family="SegoeUI, Segoe UI"><tspan x="0" y="0">I</tspan></text>
          <text id="V" transform="matrix(0.86, -0.51, 0.51, 0.86, 324.627, 173.757)" font-size="47.132" font-family="SegoeUI, Segoe UI"><tspan x="0" y="0">V</tspan></text>
          <text id="E-2" data-name="E" transform="matrix(0.876, -0.483, 0.483, 0.876, 359.652, 153.247)" font-size="47.132" font-family="SegoeUI, Segoe UI"><tspan x="0" y="0">E</tspan></text>
          <text id="_" data-name=" " transform="matrix(0.887, -0.462, 0.462, 0.887, 388.49, 137.544)" font-size="47.132" font-family="SegoeUI, Segoe UI"><tspan x="0" y="0"> </tspan></text>
          <text id="W" transform="matrix(0.9, -0.435, 0.435, 0.9, 406.623, 127.923)" font-size="47.132" font-family="SegoeUI, Segoe UI"><tspan x="0" y="0">W</tspan></text>
          <text id="O" transform="translate(456.58 104.068) rotate(-23.417)" font-size="47.132" font-family="SegoeUI, Segoe UI"><tspan x="0" y="0">O</tspan></text>
          <text id="R-2" data-name="R" transform="matrix(0.931, -0.365, 0.365, 0.931, 501.07, 85.074)" font-size="47.132" font-family="SegoeUI, Segoe UI"><tspan x="0" y="0">R</tspan></text>
          <text id="K" transform="matrix(0.942, -0.335, 0.335, 0.942, 536.483, 71.346)" font-size="47.132" font-family="SegoeUI, Segoe UI"><tspan x="0" y="0">K</tspan></text>
          <text id="_." data-name="." transform="matrix(0.951, -0.311, 0.311, 0.951, 572.364, 58.812)" font-size="47.132" font-family="SegoeUI, Segoe UI"><tspan x="0" y="0">.</tspan></text>
          <text id="_.-2" data-name="." transform="matrix(0.956, -0.292, 0.292, 0.956, 593.639, 51.952)" font-size="47.132" font-family="SegoeUI, Segoe UI"><tspan x="0" y="0">.</tspan></text>
          <text id="_.-3" data-name="." transform="matrix(0.962, -0.273, 0.273, 0.962, 615.066, 45.506)" font-size="47.132" font-family="SegoeUI, Segoe UI"><tspan x="0" y="0">.</tspan></text>
        </g>
      </g>
      <g id="Group_75" data-name="Group 75" transform="translate(404.59 284.518)">
        <g id="Group_74" data-name="Group 74" clip-path="url(#clip-path-2)">
          <text id="S" transform="matrix(0.917, -0.4, 0.4, 0.917, 686.898, 689.674)" font-size="47.132" font-family="SegoeUI, Segoe UI"><tspan x="0" y="0">S</tspan></text>
          <text id="P" transform="matrix(0.903, -0.43, 0.43, 0.903, 717.246, 676.189)" font-size="47.132" font-family="SegoeUI, Segoe UI"><tspan x="0" y="0">P</tspan></text>
          <text id="E-3" data-name="E" transform="matrix(0.891, -0.455, 0.455, 0.891, 749.14, 660.847)" font-size="47.132" font-family="SegoeUI, Segoe UI"><tspan x="0" y="0">E</tspan></text>
          <text id="A-2" data-name="A" transform="matrix(0.876, -0.482, 0.482, 0.876, 778.273, 645.89)" font-size="47.132" font-family="SegoeUI, Segoe UI"><tspan x="0" y="0">A</tspan></text>
          <text id="K-2" data-name="K" transform="matrix(0.86, -0.51, 0.51, 0.86, 813.767, 626.192)" font-size="47.132" font-family="SegoeUI, Segoe UI"><tspan x="0" y="0">K</tspan></text>
          <text id="_2" data-name=" " transform="matrix(0.846, -0.533, 0.533, 0.846, 846.325, 606.605)" font-size="47.132" font-family="SegoeUI, Segoe UI"><tspan x="0" y="0"> </tspan></text>
          <text id="F" transform="matrix(0.833, -0.554, 0.554, 0.833, 865.21, 594.655)" font-size="47.132" font-family="SegoeUI, Segoe UI"><tspan x="0" y="0">F</tspan></text>
          <text id="O-2" data-name="O" transform="matrix(0.811, -0.585, 0.585, 0.811, 892.412, 576.549)" font-size="47.132" font-family="SegoeUI, Segoe UI"><tspan x="0" y="0">O</tspan></text>
          <text id="R-3" data-name="R" transform="matrix(0.786, -0.619, 0.619, 0.786, 931.461, 548.043)" font-size="47.132" font-family="SegoeUI, Segoe UI"><tspan x="0" y="0">R</tspan></text>
          <text id="_3" data-name=" " transform="matrix(0.766, -0.643, 0.643, 0.766, 961.134, 524.344)" font-size="47.132" font-family="SegoeUI, Segoe UI"><tspan x="0" y="0"> </tspan></text>
          <text id="I-2" data-name="I" transform="matrix(0.75, -0.662, 0.662, 0.75, 978.161, 509.902)" font-size="47.132" font-family="SegoeUI, Segoe UI"><tspan x="0" y="0">I</tspan></text>
          <text id="T-2" data-name="T" transform="matrix(0.727, -0.686, 0.686, 0.727, 994.834, 495.138)" font-size="47.132" font-family="SegoeUI, Segoe UI"><tspan x="0" y="0">T</tspan></text>
          <text id="S-2" data-name="S" transform="matrix(0.696, -0.718, 0.718, 0.696, 1021.257, 469.869)" font-size="47.132" font-family="SegoeUI, Segoe UI"><tspan x="0" y="0">S</tspan></text>
          <text id="E-4" data-name="E" transform="matrix(0.662, -0.749, 0.749, 0.662, 1044.77, 445.312)" font-size="47.132" font-family="SegoeUI, Segoe UI"><tspan x="0" y="0">E</tspan></text>
          <text id="L" transform="matrix(0.623, -0.783, 0.783, 0.623, 1067.151, 419.608)" font-size="47.132" font-family="SegoeUI, Segoe UI"><tspan x="0" y="0">L</tspan></text>
          <text id="F-2" data-name="F" transform="matrix(0.575, -0.818, 0.818, 0.575, 1088.246, 392.619)" font-size="47.132" font-family="SegoeUI, Segoe UI"><tspan x="0" y="0">F</tspan></text>
          <text id="_4" data-name="!" transform="matrix(0.526, -0.85, 0.85, 0.526, 1107.603, 364.397)" font-size="47.132" font-family="SegoeUI, Segoe UI"><tspan x="0" y="0">!</tspan></text>
        </g>
      </g>
    </g>
    <g id="Group_70" data-name="Group 70" transform="translate(363 1122.004)">
      <g id="Group_69" data-name="Group 69" transform="translate(-0.12 -1405)" clip-path="url(#clip-path-3)">
        <text id="S-3" data-name="S" transform="matrix(0.997, 0.083, -0.083, 0.997, 901.966, 78.298)" font-size="47.132" font-family="SegoeUI, Segoe UI"><tspan x="0" y="0">S</tspan></text>
        <text id="E-5" data-name="E" transform="matrix(0.989, 0.145, -0.145, 0.989, 934.32, 81.262)" font-size="47.132" font-family="SegoeUI, Segoe UI"><tspan x="0" y="0">E</tspan></text>
        <text id="E-6" data-name="E" transform="matrix(0.977, 0.215, -0.215, 0.977, 966.324, 86.243)" font-size="47.132" font-family="SegoeUI, Segoe UI"><tspan x="0" y="0">E</tspan></text>
        <text id="_5" data-name=" " transform="matrix(0.959, 0.282, -0.282, 0.959, 997.872, 93.674)" font-size="47.132" font-family="SegoeUI, Segoe UI"><tspan x="0" y="0"> </tspan></text>
        <text id="O-3" data-name="O" transform="matrix(0.925, 0.381, -0.381, 0.925, 1018.787, 99.524)" font-size="47.132" font-family="SegoeUI, Segoe UI"><tspan x="0" y="0">O</tspan></text>
        <text id="U" transform="matrix(0.845, 0.534, -0.534, 0.845, 1062.245, 118.095)" font-size="47.132" font-family="SegoeUI, Segoe UI"><tspan x="0" y="0">U</tspan></text>
        <text id="R-4" data-name="R" transform="matrix(0.726, 0.688, -0.688, 0.726, 1099.332, 142.744)" font-size="47.132" font-family="SegoeUI, Segoe UI"><tspan x="0" y="0">R</tspan></text>
        <text id="_.-4" data-name="." transform="matrix(0.605, 0.796, -0.796, 0.605, 1125.192, 168.958)" font-size="47.132" font-family="SegoeUI, Segoe UI"><tspan x="0" y="0">.</tspan></text>
        <text id="_.-5" data-name="." transform="matrix(0.498, 0.867, -0.867, 0.498, 1137.753, 186.348)" font-size="47.132" font-family="SegoeUI, Segoe UI"><tspan x="0" y="0">.</tspan></text>
        <text id="_.-6" data-name="." transform="matrix(0.405, 0.914, -0.914, 0.405, 1147.756, 205.136)" font-size="47.132" font-family="SegoeUI, Segoe UI"><tspan x="0" y="0">.</tspan></text>
      </g>
    </g>
    <g id="Group_57" data-name="Group 57" transform="translate(5 44.005)">
      <g id="Component_1_9" data-name="Component 1 – 9" transform="translate(324.331 -104.564) rotate(-7)">
        <g id="Group_39" data-name="Group 39" clip-path="url(#clip-path-4)">
          <path id="Path_197" data-name="Path 197" d="M379.445,726.045c-53.641,0-104.462-5.11-151.036-15.424C102.731,682.786,23.129,620.348,4.263,534.81s25.3-183.775,124.362-276.62C227.453,165.566,369.168,89.3,527.665,43.459S842.5-12.348,967.883,15.426c125.678,27.835,205.28,90.271,224.147,175.811s-25.3,183.775-124.363,276.618c-98.828,92.625-240.543,168.888-399.04,214.732-99.622,28.817-198.415,43.459-289.182,43.459M816.721,2.77c-88.772,0-187.2,13.892-288.5,43.193C201.957,140.338-32.107,359.348,6.451,534.179s335.359,240.28,661.625,145.9c158.182-45.755,299.584-121.836,398.163-214.225,98.346-92.174,142.24-189.479,123.6-273.989C1163.254,71.323,1013.862,2.77,816.721,2.77" transform="translate(0 0)"/>
        </g>
      </g>
      <g id="Component_1_10" data-name="Component 1 – 10" transform="translate(343.552 80.943) rotate(-7)">
        <g id="Group_39-2" data-name="Group 39" clip-path="url(#clip-path-4)">
          <path id="Path_197-2" data-name="Path 197" d="M379.445,726.045c-53.641,0-104.462-5.11-151.036-15.424C102.731,682.786,23.129,620.348,4.263,534.81s25.3-183.775,124.362-276.62C227.453,165.566,369.168,89.3,527.665,43.459S842.5-12.348,967.883,15.426c125.678,27.835,205.28,90.271,224.147,175.811s-25.3,183.775-124.363,276.618c-98.828,92.625-240.543,168.888-399.04,214.732-99.622,28.817-198.415,43.459-289.182,43.459M816.721,2.77c-88.772,0-187.2,13.892-288.5,43.193C201.957,140.338-32.107,359.348,6.451,534.179s335.359,240.28,661.625,145.9c158.182-45.755,299.584-121.836,398.163-214.225,98.346-92.174,142.24-189.479,123.6-273.989C1163.254,71.323,1013.862,2.77,816.721,2.77" transform="translate(0 0)"/>
        </g>
      </g>
      <g id="Component_1_13" data-name="Component 1 – 13" transform="translate(343.552 217.943) rotate(-7)">
        <g id="Group_39-3" data-name="Group 39" clip-path="url(#clip-path-4)">
          <path id="Path_197-3" data-name="Path 197" d="M379.445,726.045c-53.641,0-104.462-5.11-151.036-15.424C102.731,682.786,23.129,620.348,4.263,534.81s25.3-183.775,124.362-276.62C227.453,165.566,369.168,89.3,527.665,43.459S842.5-12.348,967.883,15.426c125.678,27.835,205.28,90.271,224.147,175.811s-25.3,183.775-124.363,276.618c-98.828,92.625-240.543,168.888-399.04,214.732-99.622,28.817-198.415,43.459-289.182,43.459M816.721,2.77c-88.772,0-187.2,13.892-288.5,43.193C201.957,140.338-32.107,359.348,6.451,534.179s335.359,240.28,661.625,145.9c158.182-45.755,299.584-121.836,398.163-214.225,98.346-92.174,142.24-189.479,123.6-273.989C1163.254,71.323,1013.862,2.77,816.721,2.77" transform="translate(0 0)"/>
        </g>
      </g>
      <g id="Component_1_11" data-name="Component 1 – 11" transform="translate(362.368 354.361) rotate(-7)">
        <g id="Group_39-4" data-name="Group 39" clip-path="url(#clip-path-4)">
          <path id="Path_197-4" data-name="Path 197" d="M379.445,726.045c-53.641,0-104.462-5.11-151.036-15.424C102.731,682.786,23.129,620.348,4.263,534.81s25.3-183.775,124.362-276.62C227.453,165.566,369.168,89.3,527.665,43.459S842.5-12.348,967.883,15.426c125.678,27.835,205.28,90.271,224.147,175.811s-25.3,183.775-124.363,276.618c-98.828,92.625-240.543,168.888-399.04,214.732-99.622,28.817-198.415,43.459-289.182,43.459M816.721,2.77c-88.772,0-187.2,13.892-288.5,43.193C201.957,140.338-32.107,359.348,6.451,534.179s335.359,240.28,661.625,145.9c158.182-45.755,299.584-121.836,398.163-214.225,98.346-92.174,142.24-189.479,123.6-273.989C1163.254,71.323,1013.862,2.77,816.721,2.77" transform="translate(0 0)"/>
        </g>
      </g>
    </g>
  </g>
</svg>
