<svg xmlns="http://www.w3.org/2000/svg" xmlns:xlink="http://www.w3.org/1999/xlink" width="1680.385" height="1548.387" viewBox="0 0 1680.385 1548.387">
  <defs>
    <clipPath id="clip-path">
      <rect id="Rectangle_24" data-name="Rectangle 24" width="1391.509" height="942.583" fill="none"/>
    </clipPath>
  </defs>
  <g id="text__svg" transform="matrix(0.839, -0.545, 0.545, 0.839, 0, 757.87)">
    <g id="Group_37" data-name="Group 37" clip-path="url(#clip-path)">
      <g id="Group_36" data-name="Group 36">
        <g id="Group_35" data-name="Group 35" clip-path="url(#clip-path)">
          <g id="Group_34" data-name="Group 34" opacity="0.9">
            <g id="Group_33" data-name="Group 33">
              <g id="Group_32" data-name="Group 32" clip-path="url(#clip-path)">
                <path id="Path_93" data-name="Path 93" d="M166.613,493.982a5.77,5.77,0,0,0-4.363.65,4.678,4.678,0,0,0-2.259,3.138,4.741,4.741,0,0,0,.559,3.571,13.32,13.32,0,0,0,2.6,2.958c1.092.948,2.276,1.887,3.562,2.816a21.16,21.16,0,0,1,3.484,3.169,12.5,12.5,0,0,1,2.387,4.028,9.993,9.993,0,0,1,.194,5.385,12.284,12.284,0,0,1-2.03,4.814,11.2,11.2,0,0,1-3.7,3.3,13.354,13.354,0,0,1-5.02,1.545,19.512,19.512,0,0,1-6.053-.351,20.36,20.36,0,0,1-5.1-1.7,10.2,10.2,0,0,1-3.184-2.278q.927-1.812,1.62-3.328t1.343-3.326l1.026.213a7.488,7.488,0,0,0,.363,2.442,7.321,7.321,0,0,0,1.141,2.205,6.817,6.817,0,0,0,1.963,1.747,8.893,8.893,0,0,0,2.836,1.066q3.252.66,5.124-.669a5.645,5.645,0,0,0,2.333-3.635,4.983,4.983,0,0,0-.514-3.65,12.294,12.294,0,0,0-2.516-2.944q-1.587-1.381-3.511-2.774a20.507,20.507,0,0,1-3.434-3.129,12.13,12.13,0,0,1-2.312-3.993,10.106,10.106,0,0,1-.169-5.373,12.223,12.223,0,0,1,2.01-4.849A10.89,10.89,0,0,1,158.4,491.9a11.725,11.725,0,0,1,4.323-1.461,14.149,14.149,0,0,1,4.79.178,16.933,16.933,0,0,1,4.981,1.763,11.981,11.981,0,0,1,3.371,2.744q-.738,1.163-1.326,2.272c-.392.739-.889,1.677-1.491,2.809l-.812-.167q-.8-5.076-5.62-6.059" transform="translate(117.563 401.748)"/>
                <path id="Path_94" data-name="Path 94" d="M185.018,501.044a13.747,13.747,0,0,0,.077-1.965c-.548-.062-1.23-.118-2.039-.177s-1.676-.1-2.6-.153-1.866-.078-2.829-.093-1.854-.013-2.671,0c.117-.4.228-.8.327-1.2a9,9,0,0,0,.271-2.445q-.016-.625-.057-1.248c1.241.18,2.365.346,3.366.5s2.03.295,3.069.429,2.177.286,3.4.444,2.7.335,4.42.529,3.2.353,4.429.475,2.358.229,3.386.327,2.03.184,3,.257,2.031.155,3.172.247c-.119.4-.226.8-.327,1.2a8.989,8.989,0,0,0-.217,1.215,8.894,8.894,0,0,0-.052,1.239c.009.413.025.83.056,1.244-.72-.195-1.534-.393-2.439-.584s-1.807-.375-2.7-.533-1.742-.3-2.541-.431-1.478-.224-2.026-.286a6.087,6.087,0,0,0-.171.768c-.054.335-.108.722-.156,1.168l-.325,2.949-1.541,13.92q-.509,4.623-.8,8.22t-.451,7.083a17.365,17.365,0,0,0-2.021-.344c-.733-.084-1.557-.175-2.473-.279l-2.471-.28a17.277,17.277,0,0,0-2.048-.122c.4-2.28.769-4.619,1.11-7s.677-5.116,1.017-8.2L184.718,504q.178-1.613.3-2.953" transform="translate(139.282 404.573)"/>
                <path id="Path_95" data-name="Path 95" d="M233.333,535.884c-.882-.115-1.719-.184-2.509-.218s-1.575-.064-2.349-.095-1.555-.06-2.349-.091-1.575-.027-2.353.014q-.779-2.778-1.6-5.671t-1.767-5.787c-1.176-.084-2.351-.162-3.527-.226s-2.362-.127-3.538-.173c-.959-.038-1.915-.067-2.876-.087s-1.916-.029-2.876-.034q-1.22,2.808-2.268,5.627t-1.933,5.531a7.988,7.988,0,0,0-1.3-.166l-1.3-.053c-.444-.018-.885-.033-1.327-.051a9.881,9.881,0,0,0-1.44.053q.717-1.43,1.925-3.961t2.662-5.72q1.458-3.193,3.12-6.855t3.334-7.408q1.668-3.747,3.278-7.381t2.951-6.773c.366.087.715.166,1.042.235a6.319,6.319,0,0,0,1.045.129,6.846,6.846,0,0,0,1.054-.042c.338-.044.686-.093,1.061-.153q1.573,4.822,3.384,10.339t3.642,10.825q1.835,5.316,3.589,10.1t3.224,8.094m-18.464-28.721q-1.573,3.294-2.971,6.519t-2.75,6.591l10.114.408q-1.08-3.469-2.141-6.79t-2.252-6.728" transform="translate(157.642 406.699)"/>
                <path id="Path_96" data-name="Path 96" d="M247.223,509.948q1.062-2.069,2.062-4.336c.666-1.512,1.315-3.026,1.945-4.554s1.241-2.991,1.836-4.385c.408.065.824.118,1.25.166a9.556,9.556,0,0,0,1.3.055,10.133,10.133,0,0,0,1.3-.115c.42-.062.873-.142,1.349-.227q-.905,1.591-2.256,4.172t-2.892,5.587q-1.538,3-3.1,6.148t-2.829,5.807c.018.9.02,1.8,0,2.72s-.014,1.839.007,2.773q.065,2.855.21,5.651t.6,5.876c-.776-.06-1.561-.074-2.353-.062s-1.575.038-2.351.056-1.557.033-2.347.051-1.573.073-2.347.171q.051-2.584.269-5.274a53.4,53.4,0,0,0,.158-5.385c-.022-.857-.05-1.728-.088-2.6s-.088-1.743-.142-2.6q-1.447-2.773-3.319-6.171t-3.633-6.615q-1.759-3.207-3.226-5.809t-2.161-3.761q1.277.085,2.493.142c.814.036,1.642.044,2.491.025s1.665-.067,2.457-.142,1.609-.158,2.459-.255q.983,2.058,2.231,4.55t2.459,4.874c.81,1.583,1.561,3.026,2.254,4.316s1.248,2.251,1.669,2.876l.111,0q1.067-1.651,2.128-3.717" transform="translate(180.289 406.858)"/>
                <path id="Path_97" data-name="Path 97" d="M292.112,496.011a5.788,5.788,0,0,0-3.933,2.016,4.927,4.927,0,0,0,.478,6.91,12.893,12.893,0,0,0,3.387,1.972q2,.827,4.255,1.532a20.882,20.882,0,0,1,4.3,1.892,12.359,12.359,0,0,1,3.518,3.06,9.917,9.917,0,0,1,1.87,5.045,12.336,12.336,0,0,1-.426,5.213,11.322,11.322,0,0,1-2.484,4.323,13.446,13.446,0,0,1-4.276,3.075,19.48,19.48,0,0,1-5.852,1.6,20.152,20.152,0,0,1-5.374.024,10.13,10.13,0,0,1-3.732-1.139q.313-2.019.5-3.679c.122-1.1.2-2.3.232-3.588l1.043-.126a7.409,7.409,0,0,0,2.874,3.93,6.8,6.8,0,0,0,2.41,1.028,8.892,8.892,0,0,0,3.021.1,6.432,6.432,0,0,0,4.654-2.278,5.679,5.679,0,0,0,1.078-4.192,4.968,4.968,0,0,0-1.625-3.3,12.2,12.2,0,0,0-3.308-1.987q-1.937-.8-4.2-1.506a20.412,20.412,0,0,1-4.241-1.868,12,12,0,0,1-3.434-3.044,10.1,10.1,0,0,1-1.841-5.047,12.386,12.386,0,0,1,.391-5.242,11.069,11.069,0,0,1,2.265-4.063,11.9,11.9,0,0,1,3.646-2.773,14.334,14.334,0,0,1,4.6-1.366,16.913,16.913,0,0,1,5.277.076,11.886,11.886,0,0,1,4.057,1.525c-.223.893-.408,1.754-.548,2.58s-.322,1.876-.539,3.144l-.821.1q-2.341-4.56-7.224-3.952" transform="translate(223.617 403.429)"/>
                <path id="Path_98" data-name="Path 98" d="M306.234,511.8a20.014,20.014,0,0,1,.183-7.934,19.6,19.6,0,0,1,3.143-7.036,19.852,19.852,0,0,1,5.866-5.409,23.358,23.358,0,0,1,8.343-3.062,26.743,26.743,0,0,1,8.328-.216,18.584,18.584,0,0,1,7.161,2.493,17.085,17.085,0,0,1,5.442,5.384,22.061,22.061,0,0,1,3.1,8.409,19.572,19.572,0,0,1-.226,8,19.609,19.609,0,0,1-9.081,12.346,23.368,23.368,0,0,1-8.136,2.966,29.838,29.838,0,0,1-8.278.349,17.463,17.463,0,0,1-7.188-2.318,16.954,16.954,0,0,1-5.491-5.344,22.356,22.356,0,0,1-3.165-8.627m32.43-6.959a22.088,22.088,0,0,0-1.976-6.273,14.919,14.919,0,0,0-3.253-4.407,10.706,10.706,0,0,0-4.285-2.4,10.9,10.9,0,0,0-5-.229,9.484,9.484,0,0,0-4.754,2.231,12.113,12.113,0,0,0-3.1,4.326,17.968,17.968,0,0,0-1.383,5.842,27.486,27.486,0,0,0,.348,6.792,26.107,26.107,0,0,0,2.207,7.29,13.6,13.6,0,0,0,3.343,4.439,9.4,9.4,0,0,0,4.111,2.036,11.777,11.777,0,0,0,4.5.06,11.157,11.157,0,0,0,4.5-1.874,10.84,10.84,0,0,0,3.348-3.888,17.279,17.279,0,0,0,1.73-5.931,27.451,27.451,0,0,0-.334-8.016" transform="translate(243.541 399.776)"/>
                <path id="Path_99" data-name="Path 99" d="M375.654,513.6a13.608,13.608,0,0,0,.083,2.42,24.765,24.765,0,0,1-10.509,4.754,25.255,25.255,0,0,1-8.688.573,18.123,18.123,0,0,1-7.1-2.345,16.486,16.486,0,0,1-5.191-4.876,19.406,19.406,0,0,1-2.953-6.908,24.416,24.416,0,0,1-.392-10.043,18.178,18.178,0,0,1,3.263-7.521,19.219,19.219,0,0,1,6.019-5.189,29.3,29.3,0,0,1,7.89-3A21.652,21.652,0,0,1,361.1,481a31.45,31.45,0,0,1,3.148-.116,25.091,25.091,0,0,1,2.967.216,14.3,14.3,0,0,1,2.471.526,17.561,17.561,0,0,0-.224,2.951,21.6,21.6,0,0,0,.223,2.907l-.758.173a13.554,13.554,0,0,0-5.04-2.786,11.106,11.106,0,0,0-5.32.035,10.869,10.869,0,0,0-4.127,1.976,12.107,12.107,0,0,0-3.3,3.908,16.041,16.041,0,0,0-1.739,5.827,23.26,23.26,0,0,0,.564,7.761,20.649,20.649,0,0,0,2.728,6.932,14.576,14.576,0,0,0,4.021,4.194,11.354,11.354,0,0,0,4.713,1.825,13.117,13.117,0,0,0,4.808-.178,12.228,12.228,0,0,0,2.577-.9,17.455,17.455,0,0,0,2.462-1.421,14.764,14.764,0,0,0,2.168-1.841,11.64,11.64,0,0,0,1.647-2.161l.8.282c-.117.828-.2,1.659-.237,2.491" transform="translate(271.108 394.019)"/>
                <path id="Path_100" data-name="Path 100" d="M371.026,485.051q-1.013-3.463-2.139-6.932.935-.131,2.028-.335c.729-.133,1.536-.322,2.428-.56s1.688-.475,2.387-.72,1.34-.479,1.931-.715q.7,3.581,1.494,7.1t1.969,8.018l1.907,7.372q1.167,4.495,2.179,7.963t2.1,6.772a16.579,16.579,0,0,0-2.008.415l-2.407.64c-.891.24-1.7.451-2.409.637a17.664,17.664,0,0,0-1.949.635q-.663-3.411-1.457-6.935t-1.965-8.023l-1.911-7.37q-1.164-4.495-2.179-7.963" transform="translate(293.664 389.846)"/>
                <path id="Path_101" data-name="Path 101" d="M425.1,502.066q-1.307.278-2.444.624c-.76.229-1.51.453-2.252.682s-1.491.449-2.251.679-1.5.493-2.222.788Q414.311,502.47,412.6,500t-3.524-4.9c-1.141.3-2.276.622-3.414.946s-2.268.66-3.4,1q-1.379.418-2.748.862t-2.734.913c-.167,2.038-.28,4.066-.343,6.071s-.083,3.963-.059,5.862a7.646,7.646,0,0,0-1.277.271c-.406.122-.821.249-1.247.378s-.846.257-1.272.384a9.906,9.906,0,0,0-1.343.526q.221-1.594.555-4.379t.683-6.29q.356-3.5.758-7.508t.785-8.1q.383-4.088.742-8.053t.62-7.381c.375-.036.731-.078,1.063-.116a6.328,6.328,0,0,0,1.031-.226,6.4,6.4,0,0,0,.984-.388c.3-.149.618-.311.952-.489q3.039,4.047,6.511,8.667t6.911,9.046q3.44,4.432,6.624,8.374t5.641,6.6m-26.659-21.1q-.431,3.638-.722,7.143c-.2,2.343-.359,4.719-.492,7.141l9.7-2.938q-2.131-2.92-4.2-5.715t-4.285-5.631" transform="translate(311.458 384.597)"/>
                <path id="Path_102" data-name="Path 102" d="M417.247,471.707q-1.247-3.387-2.6-6.772c.618-.127,1.284-.289,2-.475s1.509-.426,2.383-.726,1.649-.593,2.331-.886,1.307-.575,1.875-.848q.943,3.518,1.978,6.983t2.505,7.862l2.407,7.219q1.008,3.027,1.97,5.831t1.706,4.856q2.988-1.021,5.922-2.2t5.846-2.593q.092.622.2,1.117a13.453,13.453,0,0,0,.388,1.343,13.249,13.249,0,0,0,.5,1.312,4.151,4.151,0,0,0,.422.742c-.957.284-2.125.657-3.511,1.112s-3.283,1.1-5.693,1.919c-2.13.724-3.86,1.319-5.189,1.772-1.29.442-2.331.8-3.118,1.066s-1.376.48-1.769.637a10.781,10.781,0,0,0-1,.431q-.889-3.368-1.924-6.824t-2.5-7.865l-2.407-7.219q-1.466-4.4-2.716-7.79" transform="translate(330.09 378.548)"/>
                <path id="Path_103" data-name="Path 103" d="M466.5,465.019q-1.77-4.29-3.244-7.587t-3.066-6.562c.607-.176,1.261-.38,1.963-.617s1.48-.535,2.33-.893q1.684-.715,3.725-1.727t5.408-2.434a40.039,40.039,0,0,1,8.318-2.578,17.6,17.6,0,0,1,7.321.1,13.391,13.391,0,0,1,6.15,3.439,21.654,21.654,0,0,1,4.781,7.543,22.223,22.223,0,0,1,1.793,8.347,19.6,19.6,0,0,1-1.392,7.54,18.22,18.22,0,0,1-4.07,6.117,19.6,19.6,0,0,1-6.283,4.17c-2.552,1.083-4.738,1.981-6.554,2.713s-3.391,1.37-4.717,1.932q-1.277.535-2.3.97a18.027,18.027,0,0,0-1.846.9q-1.115-3.288-2.387-6.672t-3.039-7.669Zm12,7.614,1.277,3.1c.413,1,.8,1.912,1.153,2.733s.587,1.35.688,1.594c.524-.184,1.151-.4,1.879-.677s1.622-.624,2.676-1.072a12.443,12.443,0,0,0,7.5-7.838q1.724-5.406-1.595-13.472a19.382,19.382,0,0,0-3.206-5.384,13.641,13.641,0,0,0-4.151-3.313,11.041,11.041,0,0,0-4.8-1.186,12.65,12.65,0,0,0-5.194,1.072q-1.837.775-2.953,1.339c-.747.375-1.494.764-2.25,1.161.1.244.312.782.639,1.614s.7,1.768,1.122,2.8l1.275,3.1,1.065,2.589,3.79,9.2Z" transform="translate(366.348 362.393)"/>
                <path id="Path_104" data-name="Path 104" d="M493.224,442.39q-1.584-3.237-3.283-6.457c.6-.195,1.246-.422,1.94-.686s1.46-.582,2.3-.975,1.579-.764,2.227-1.126,1.238-.708,1.778-1.039q1.3,3.4,2.683,6.735t3.3,7.558l3.132,6.926q1.913,4.23,3.5,7.463t3.215,6.3a17.4,17.4,0,0,0-1.9.76c-.672.313-1.426.66-2.261,1.054s-1.593.737-2.267,1.05a17.2,17.2,0,0,0-1.81.966q-1.231-3.256-2.615-6.582t-3.3-7.559l-3.136-6.928q-1.91-4.227-3.5-7.463" transform="translate(390.033 354.054)"/>
                <path id="Path_105" data-name="Path 105" d="M531.809,423.3a13.457,13.457,0,0,0-10.495,4.854,13.03,13.03,0,0,0-2.543,4.967,16.95,16.95,0,0,0-.417,6.33,22.08,22.08,0,0,0,2.337,7.432,20.1,20.1,0,0,0,3.576,5.136,14.645,14.645,0,0,0,4.548,3.233,11.728,11.728,0,0,0,5.21,1.008,13.165,13.165,0,0,0,5.609-1.543c.429-.218.9-.495,1.419-.821s1.016-.655,1.492-.979a12.3,12.3,0,0,0,1.273-1,3.973,3.973,0,0,0,.753-.85,13,13,0,0,0-.625-1.567c-.282-.611-.607-1.279-.97-2.014q-2.012-4.055-3.123-5.9t-1.5-2.522c.361-.105.826-.269,1.4-.5s1.363-.6,2.385-1.121c1.182-.6,2.053-1.081,2.6-1.423a15.326,15.326,0,0,0,1.272-.868,10.25,10.25,0,0,0,.474,1.386c.25.626.55,1.341.909,2.14s.747,1.647,1.173,2.542.832,1.737,1.23,2.536l.823,1.652q.62,1.253,1.178,2.314a9.9,9.9,0,0,0,.884,1.463,63.632,63.632,0,0,1-5.846,4.867,45.928,45.928,0,0,1-6.319,3.915,29.056,29.056,0,0,1-8.39,2.866,19.719,19.719,0,0,1-7.817-.146,16.964,16.964,0,0,1-6.66-3.186,17.618,17.618,0,0,1-4.9-6.186,23.224,23.224,0,0,1-2.592-9.126,18.633,18.633,0,0,1,1.336-8.145,20.921,20.921,0,0,1,4.717-6.9,30.026,30.026,0,0,1,7.5-5.331,27.117,27.117,0,0,1,6.881-2.538,29.313,29.313,0,0,1,6.515-.535q.251,1.5.5,2.94t.652,2.869l-.69.355a13.519,13.519,0,0,0-5.756-1.612" transform="translate(406.099 343.103)"/>
                <path id="Path_106" data-name="Path 106" d="M540.668,418.932q-1.824-3.108-3.759-6.188c.584-.24,1.214-.517,1.886-.833s1.412-.693,2.216-1.146,1.52-.882,2.137-1.3,1.185-.8,1.7-1.173q1.549,3.3,3.177,6.51t3.854,7.287l3.641,6.666q2.228,4.069,4.048,7.176t3.68,6.035a17.1,17.1,0,0,0-1.846.906c-.645.364-1.372.77-2.175,1.221s-1.534.859-2.179,1.223a17.338,17.338,0,0,0-1.737,1.1q-1.471-3.146-3.1-6.362t-3.854-7.281l-3.644-6.668q-2.223-4.066-4.047-7.174" transform="translate(427.423 334.543)"/>
                <path id="Path_107" data-name="Path 107" d="M564.024,408.8a14.034,14.034,0,0,0-1.115-1.607c-.474.286-1.049.662-1.726,1.115s-1.394.948-2.155,1.477-1.529,1.081-2.3,1.661-1.482,1.132-2.119,1.65c-.144-.388-.3-.777-.46-1.159a9.348,9.348,0,0,0-.555-1.1,9.584,9.584,0,0,0-.7-1.015c-.259-.32-.521-.639-.792-.955q1.641-.931,2.971-1.676t2.7-1.546q1.366-.794,2.969-1.741c1.067-.626,2.346-1.4,3.829-2.3s2.75-1.688,3.8-2.349,2.01-1.266,2.885-1.823,1.722-1.1,2.54-1.647,1.708-1.126,2.671-1.754c.146.393.3.777.46,1.157a9.185,9.185,0,0,0,.559,1.1,9.47,9.47,0,0,0,.7,1.008q.385.488.792.955c-.686.293-1.451.637-2.29,1.035s-1.658.815-2.461,1.235-1.561.835-2.274,1.224-1.307.731-1.782,1.019a6.1,6.1,0,0,0,.327.715c.153.3.347.64.577,1.026l1.51,2.542,7.121,12.008q2.365,3.984,4.294,7.023t3.89,5.9a16.831,16.831,0,0,0-1.81.971c-.634.382-1.343.819-2.136,1.3s-1.5.91-2.132,1.3a18.359,18.359,0,0,0-1.7,1.163q-1.576-3.089-3.319-6.248t-4.106-7.134l-7.123-12.008c-.55-.93-1.065-1.772-1.534-2.531" transform="translate(439.515 322.865)"/>
                <path id="Path_108" data-name="Path 108" d="M617.086,407.33q-1.166.649-2.159,1.315c-.663.444-1.315.879-1.959,1.312l-1.962,1.312c-.661.448-1.3.91-1.9,1.408q-2.233-1.793-4.573-3.653t-4.772-3.655q-1.5.944-3,1.9c-1,.646-1.985,1.3-2.967,1.958-.8.531-1.6,1.081-2.387,1.628s-1.573,1.11-2.353,1.677c.42,2.005.891,3.97,1.4,5.909s1.052,3.817,1.622,5.631a7.955,7.955,0,0,0-1.144.631c-.356.24-.717.48-1.087.73s-.738.495-1.108.739a10.249,10.249,0,0,0-1.137.9q-.24-1.583-.72-4.354t-1.14-6.22q-.665-3.45-1.421-7.408t-1.566-7.983q-.808-4.025-1.6-7.933t-1.512-7.241c.348-.146.675-.289.983-.428a6.448,6.448,0,0,0,.923-.515,6.945,6.945,0,0,0,.83-.659c.246-.231.5-.482.771-.748q4.065,2.977,8.711,6.386t9.2,6.63q4.561,3.228,8.742,6.071t7.279,4.658m-31.55-12.379q.627,3.605,1.352,7.05t1.573,6.974l8.438-5.653q-2.875-2.17-5.649-4.239t-5.715-4.132" transform="translate(461.449 314.297)"/>
                <path id="Path_109" data-name="Path 109" d="M603.169,380.108q-2.2-2.844-4.51-5.644c.55-.318,1.137-.679,1.762-1.075s1.311-.871,2.056-1.426,1.394-1.07,1.954-1.559,1.074-.946,1.536-1.386q1.948,3.073,3.975,6.048t4.743,6.724l4.454,6.139q1.862,2.571,3.623,4.947t3.08,4.1q2.543-1.891,4.982-3.913t4.8-4.27c.183.375.356.711.523,1s.426.677.776,1.163a13.152,13.152,0,0,0,.862,1.093,4.291,4.291,0,0,0,.625.577q-1.236.851-3.012,2.14t-4.853,3.575l-4.409,3.286q-1.649,1.223-2.651,1.978c-.668.491-1.167.879-1.5,1.146s-.605.508-.821.715q-1.856-2.931-3.876-5.906t-4.744-6.724l-4.454-6.142q-2.718-3.739-4.92-6.588" transform="translate(476.581 302.36)"/>
                <path id="Path_110" data-name="Path 110" d="M314.805,452.43A5.842,5.842,0,0,0,311,454.679a4.934,4.934,0,0,0,.88,6.87,13,13,0,0,0,3.5,1.768q2.037.707,4.334,1.272a21.015,21.015,0,0,1,4.4,1.628,12.377,12.377,0,0,1,3.7,2.846,9.9,9.9,0,0,1,2.155,4.923,12.329,12.329,0,0,1-.115,5.234,11.336,11.336,0,0,1-2.229,4.457A13.386,13.386,0,0,1,323.529,487a19.381,19.381,0,0,1-5.746,1.952,20.211,20.211,0,0,1-5.363.347,10.134,10.134,0,0,1-3.793-.919c.129-1.35.223-2.585.286-3.7s.065-2.311.02-3.593l1.035-.193a7.441,7.441,0,0,0,3.1,3.752,6.7,6.7,0,0,0,2.466.877,8.787,8.787,0,0,0,3.023-.075,6.453,6.453,0,0,0,4.512-2.551,5.715,5.715,0,0,0,.832-4.257,4.965,4.965,0,0,0-1.816-3.191,12.056,12.056,0,0,0-3.418-1.783c-1.322-.46-2.746-.875-4.276-1.255a20.207,20.207,0,0,1-4.341-1.612,11.987,11.987,0,0,1-3.608-2.833,10.085,10.085,0,0,1-2.132-4.927,12.334,12.334,0,0,1,.086-5.256,11.212,11.212,0,0,1,2.021-4.2,12.018,12.018,0,0,1,3.481-2.98,14.214,14.214,0,0,1,4.51-1.637,16.966,16.966,0,0,1,5.272-.242,11.9,11.9,0,0,1,4.138,1.279q-.259,1.359-.4,2.611c-.093.831-.208,1.888-.354,3.168l-.814.151q-2.6-4.41-7.443-3.511" transform="translate(242.061 367.588)"/>
                <path id="Path_111" data-name="Path 111" d="M337.906,452.529a14.1,14.1,0,0,0-.559-1.883c-.539.122-1.2.295-1.983.51s-1.62.451-2.507.715-1.789.539-2.7.842-1.757.6-2.523.888c-.016-.417-.043-.833-.077-1.246a9.211,9.211,0,0,0-.185-1.219,9.864,9.864,0,0,0-.348-1.188q-.213-.581-.456-1.159c1.232-.238,2.346-.455,3.344-.642s2.01-.391,3.039-.6,2.148-.451,3.359-.708,2.66-.573,4.35-.955,3.139-.724,4.338-1.017,2.3-.56,3.307-.808,1.978-.5,2.924-.75,1.97-.526,3.078-.817c.016.42.041.833.077,1.244a8.407,8.407,0,0,0,.189,1.226,8.568,8.568,0,0,0,.343,1.179c.144.391.3.781.454,1.163-.742.055-1.575.137-2.493.249s-1.828.244-2.721.391-1.74.289-2.54.429-1.467.277-2.008.4a5.947,5.947,0,0,0,.09.784c.052.331.128.719.226,1.153l.641,2.9,3.026,13.667q1,4.536,1.891,8.036t1.855,6.843a16.465,16.465,0,0,0-2.024.346q-1.08.243-2.427.549c-.9.206-1.712.387-2.428.549a17.489,17.489,0,0,0-1.972.566q-.536-3.441-1.207-6.988t-1.678-8.089l-3.023-13.667q-.353-1.58-.67-2.889" transform="translate(259.972 362.56)"/>
                <path id="Path_112" data-name="Path 112" d="M389.3,471.173q-1.315.235-2.461.542l-2.272.608q-1.123.3-2.276.606c-.765.207-1.514.44-2.245.715-1.029-1.614-2.087-3.268-3.172-4.943s-2.207-3.355-3.362-5.014q-1.727.4-3.445.831t-3.427.89c-.93.247-1.854.5-2.775.768s-1.843.538-2.761.82q-.353,3.048-.541,6.057t-.25,5.858a7.762,7.762,0,0,0-1.284.227c-.409.111-.83.22-1.257.337s-.855.226-1.284.342a9.3,9.3,0,0,0-1.361.48q.277-1.58.7-4.361c.28-1.849.575-3.939.887-6.259s.645-4.819,1-7.479.7-5.354,1.045-8.072.675-5.395,1-8.031.612-5.087.86-7.354c.377-.022.733-.049,1.069-.084a6.174,6.174,0,0,0,1.036-.187,6.7,6.7,0,0,0,.995-.355c.3-.138.625-.293.966-.458q2.907,4.145,6.229,8.88t6.615,9.272q3.295,4.536,6.351,8.587t5.422,6.777M363.338,449.2q-.542,3.627-.95,7.117t-.722,7.117l9.789-2.611q-2.037-2.991-4.011-5.851t-4.106-5.773" transform="translate(282.713 358.602)"/>
                <path id="Path_113" data-name="Path 113" d="M399.377,444.315q.471-2.281.839-4.738t.67-4.916q.3-2.461.613-4.721.611-.071,1.245-.178a9.691,9.691,0,0,0,1.268-.3,10.054,10.054,0,0,0,1.22-.458c.392-.182.806-.375,1.241-.588q-.45,1.779-1.07,4.632t-1.309,6.166q-.687,3.313-1.356,6.764t-1.193,6.366q.383,1.288.724,2.616t.742,2.671q.814,2.735,1.7,5.391t2.13,5.493q-1.142.235-2.283.58c-.76.233-1.509.466-2.25.691l-2.249.688c-.756.235-1.5.5-2.216.8q-.63-2.494-1.135-5.151a51.937,51.937,0,0,0-1.273-5.229c-.243-.82-.5-1.65-.771-2.485s-.542-1.657-.821-2.467q-2.128-2.282-4.833-5.051t-5.246-5.384q-2.546-2.614-4.648-4.719t-3.071-3.04c.832-.178,1.643-.357,2.437-.542s1.595-.4,2.4-.65,1.59-.515,2.331-.8,1.509-.588,2.3-.908q1.487,1.706,3.348,3.775t3.66,4.026q1.8,1.968,3.314,3.553t2.367,2.314l.106-.029q.593-1.883,1.069-4.163" transform="translate(299.356 351.028)"/>
                <path id="Path_114" data-name="Path 114" d="M436.963,418.186a5.853,5.853,0,0,0-3.352,2.9,4.726,4.726,0,0,0-.269,3.873,4.677,4.677,0,0,0,2.349,2.725,12.971,12.971,0,0,0,3.748,1.108q2.134.322,4.49.469a20.871,20.871,0,0,1,4.62.8,12.37,12.37,0,0,1,4.135,2.13,9.814,9.814,0,0,1,2.992,4.456,12.323,12.323,0,0,1,.807,5.171,11.4,11.4,0,0,1-1.406,4.79,13.523,13.523,0,0,1-3.441,4.012,19.591,19.591,0,0,1-5.309,2.962,20.52,20.52,0,0,1-5.216,1.308,10.184,10.184,0,0,1-3.9-.215c-.11-1.357-.232-2.585-.37-3.691s-.339-2.287-.614-3.54l.988-.375a7.389,7.389,0,0,0,3.709,3.129,6.688,6.688,0,0,0,2.579.418,8.741,8.741,0,0,0,2.96-.624,6.488,6.488,0,0,0,3.995-3.322,5.745,5.745,0,0,0,.065-4.341,4.924,4.924,0,0,0-2.349-2.811,12.08,12.08,0,0,0-3.678-1.137q-2.069-.317-4.429-.462a20.07,20.07,0,0,1-4.555-.8,11.817,11.817,0,0,1-4.048-2.134,10.023,10.023,0,0,1-2.965-4.461,12.265,12.265,0,0,1-.839-5.187,11.116,11.116,0,0,1,1.25-4.492,11.9,11.9,0,0,1,2.9-3.564,14.224,14.224,0,0,1,4.149-2.425,16.808,16.808,0,0,1,5.144-1.192,11.908,11.908,0,0,1,4.3.509c-.009.922.011,1.8.068,2.638s.126,1.9.212,3.184l-.774.3q-3.341-3.875-7.942-2.11" transform="translate(340.432 338.931)"/>
                <path id="Path_115" data-name="Path 115" d="M452.6,431.654a19.983,19.983,0,0,1-1.582-7.774,19.757,19.757,0,0,1,1.5-7.572,20.13,20.13,0,0,1,4.517-6.6,23.51,23.51,0,0,1,7.452-4.88,26.759,26.759,0,0,1,8.064-2.1,18.565,18.565,0,0,1,7.533.8,16.947,16.947,0,0,1,6.5,4.006,21.922,21.922,0,0,1,4.882,7.489,19.5,19.5,0,0,1,1.552,7.851,19.746,19.746,0,0,1-6.11,14.095,23.437,23.437,0,0,1-7.269,4.741,30.046,30.046,0,0,1-7.987,2.221,17.348,17.348,0,0,1-7.524-.622,16.853,16.853,0,0,1-6.534-3.957,22.28,22.28,0,0,1-4.995-7.689M482.656,417.5a22.039,22.039,0,0,0-3.314-5.667,14.857,14.857,0,0,0-4.149-3.551,10.709,10.709,0,0,0-4.706-1.366,11.089,11.089,0,0,0-4.928.917,9.616,9.616,0,0,0-4.14,3.258,12.2,12.2,0,0,0-2.064,4.92,18.1,18.1,0,0,0-.052,6.009,27.262,27.262,0,0,0,1.848,6.537,25.959,25.959,0,0,0,3.763,6.6,13.489,13.489,0,0,0,4.246,3.57,9.349,9.349,0,0,0,4.456,1.046,11.831,11.831,0,0,0,4.4-.962,11.172,11.172,0,0,0,3.975-2.851,10.916,10.916,0,0,0,2.4-4.55,17.339,17.339,0,0,0,.372-6.178,27.291,27.291,0,0,0-2.1-7.731" transform="translate(359.046 329.904)"/>
                <path id="Path_116" data-name="Path 116" d="M519.9,418.33a13.691,13.691,0,0,0,.6,2.341,24.924,24.924,0,0,1-9.228,6.963,25.192,25.192,0,0,1-8.355,2.482,17.9,17.9,0,0,1-7.429-.719,16.377,16.377,0,0,1-6.119-3.6A19.341,19.341,0,0,1,485,419.706a24.324,24.324,0,0,1-2.545-9.715,18.281,18.281,0,0,1,1.559-8.062,19.277,19.277,0,0,1,4.756-6.4,29.475,29.475,0,0,1,7.051-4.679,22.462,22.462,0,0,1,2.845-1.117c1.027-.326,2.046-.595,3.048-.808a25.568,25.568,0,0,1,2.938-.448,14.151,14.151,0,0,1,2.525-.033,17.75,17.75,0,0,0,.418,2.929,21.758,21.758,0,0,0,.844,2.789l-.7.335a13.527,13.527,0,0,0-5.521-1.6,11.127,11.127,0,0,0-5.184,1.212,10.929,10.929,0,0,0-3.6,2.836,12.237,12.237,0,0,0-2.374,4.548,16.065,16.065,0,0,0-.442,6.064,23.26,23.26,0,0,0,2.227,7.458A20.453,20.453,0,0,0,497,421.176a14.353,14.353,0,0,0,4.828,3.2,11.333,11.333,0,0,0,4.995.739,13.251,13.251,0,0,0,4.652-1.237,12.808,12.808,0,0,0,2.322-1.454,17.7,17.7,0,0,0,2.092-1.932,14.36,14.36,0,0,0,1.721-2.28,11.546,11.546,0,0,0,1.142-2.467l.839.093c.066.839.165,1.667.305,2.489" transform="translate(384.068 318.248)"/>
                <path id="Path_117" data-name="Path 117" d="M510.692,389.872q-1.738-3.166-3.58-6.3.884-.336,1.906-.775c.681-.295,1.431-.653,2.25-1.081s1.541-.841,2.171-1.232,1.205-.766,1.731-1.126q1.449,3.338,2.989,6.6t3.644,7.392l3.452,6.768q2.1,4.135,3.84,7.29t3.5,6.144a17.367,17.367,0,0,0-1.868.85q-.983.516-2.209,1.157t-2.213,1.157a18.1,18.1,0,0,0-1.769,1.05q-1.374-3.185-2.913-6.451t-3.644-7.392l-3.45-6.768q-2.109-4.132-3.842-7.29" transform="translate(403.703 310.837)"/>
                <path id="Path_118" data-name="Path 118" d="M565.774,394.238q-1.21.565-2.247,1.155t-2.046,1.17c-.675.382-1.358.775-2.048,1.168s-1.356.815-1.994,1.266q-2.1-1.949-4.305-3.97t-4.5-3.986q-1.571.83-3.123,1.685t-3.1,1.739c-.835.479-1.665.959-2.493,1.454s-1.645.993-2.464,1.5q.426,3.038.988,5.993t1.223,5.735a7.666,7.666,0,0,0-1.187.549c-.37.209-.745.426-1.13.646l-1.157.659a9.572,9.572,0,0,0-1.2.815c-.086-1.066-.224-2.529-.413-4.4s-.427-3.955-.706-6.282-.582-4.827-.9-7.492-.656-5.36-1-8.078-.695-5.391-1.038-8.027-.677-5.076-1-7.336c.357-.116.7-.235,1.009-.351a6.165,6.165,0,0,0,.956-.449,6.365,6.365,0,0,0,.876-.6c.262-.213.535-.442.819-.693q3.847,3.269,8.242,7t8.716,7.274q4.319,3.551,8.291,6.684t6.938,5.165m-30.605-14.611q.375,3.646.857,7.132t1.078,7.066l8.815-5.031q-2.713-2.374-5.344-4.638t-5.406-4.53" transform="translate(421.864 301.623)"/>
                <path id="Path_119" data-name="Path 119" d="M553.922,365.968q-1.978-3.01-4.066-5.982c.571-.267,1.185-.58,1.841-.93s1.374-.766,2.157-1.259,1.473-.961,2.067-1.4,1.144-.861,1.636-1.261q1.711,3.207,3.5,6.337t4.217,7.074l3.971,6.471q1.662,2.71,3.238,5.216t2.759,4.334q2.675-1.689,5.264-3.517t5.108-3.879c.151.389.3.731.444,1.041a12.857,12.857,0,0,0,.684,1.217,13.819,13.819,0,0,0,.776,1.161,4,4,0,0,0,.576.622q-1.293.753-3.165,1.9t-5.108,3.189q-2.864,1.8-4.648,2.927c-1.16.733-2.091,1.315-2.793,1.761s-1.236.788-1.582,1.028-.643.46-.873.651q-1.624-3.067-3.413-6.193T562.3,379.4l-3.975-6.468q-2.422-3.949-4.4-6.959" transform="translate(437.73 290.985)"/>
                <path id="Path_120" data-name="Path 120" d="M600.932,349.109q-2.794-3.684-5.058-6.484t-4.625-5.549c.539-.326,1.121-.7,1.737-1.106s1.3-.9,2.026-1.47q1.447-1.124,3.159-2.638t4.609-3.761a40.356,40.356,0,0,1,7.385-4.654,17.6,17.6,0,0,1,7.1-1.814,13.255,13.255,0,0,1,6.818,1.723,21.4,21.4,0,0,1,6.534,6.04,22.034,22.034,0,0,1,3.849,7.6,19.632,19.632,0,0,1,.569,7.649,18.321,18.321,0,0,1-2.382,6.972,19.86,19.86,0,0,1-5.011,5.669q-3.292,2.56-5.647,4.325t-4.068,3.1c-.731.569-1.39,1.079-1.974,1.537A16.977,16.977,0,0,0,614.4,367.6q-1.916-2.893-4-5.826t-4.884-6.621Zm13.533,4.232,2.021,2.665c.652.859,1.252,1.639,1.807,2.34s.912,1.15,1.067,1.359c.46-.313,1.011-.693,1.647-1.139s1.406-1.028,2.315-1.734a12.556,12.556,0,0,0,5.255-9.528q.3-5.674-4.959-12.6a19.224,19.224,0,0,0-4.463-4.368,13.426,13.426,0,0,0-4.851-2.123,11.044,11.044,0,0,0-4.945.1,12.664,12.664,0,0,0-4.743,2.387c-1.054.821-1.89,1.506-2.516,2.063s-1.25,1.128-1.877,1.708q.237.311,1.02,1.394c.526.72,1.123,1.528,1.8,2.418l2.022,2.662,1.685,2.223,6,7.909Z" transform="translate(470.682 263.531)"/>
                <path id="Path_121" data-name="Path 121" d="M622.143,317.407q-2.414-2.661-4.934-5.273.787-.538,1.678-1.208c.593-.442,1.239-.972,1.94-1.581s1.3-1.179,1.828-1.708.995-1.032,1.423-1.506q2.185,2.9,4.431,5.711t5.245,6.328l4.918,5.769q3,3.515,5.412,6.179t4.824,5.147a17.21,17.21,0,0,0-1.62,1.266c-.56.489-1.189,1.041-1.886,1.646s-1.324,1.164-1.882,1.65a18.668,18.668,0,0,0-1.476,1.435q-2.074-2.773-4.319-5.582t-5.25-6.326l-4.916-5.767q-3-3.521-5.413-6.18" transform="translate(491.349 250.834)"/>
                <path id="Path_122" data-name="Path 122" d="M651.359,290.288a13.583,13.583,0,0,0-8.517,7.885,13.186,13.186,0,0,0-.918,5.522,16.906,16.906,0,0,0,1.525,6.148,21.908,21.908,0,0,0,4.472,6.35,19.892,19.892,0,0,0,4.963,3.775,14.566,14.566,0,0,0,5.307,1.663,11.777,11.777,0,0,0,5.264-.66,13.286,13.286,0,0,0,4.871-3.217c.339-.34.708-.744,1.1-1.219s.769-.937,1.124-1.4a11.837,11.837,0,0,0,.909-1.341,3.961,3.961,0,0,0,.46-1.048,13.2,13.2,0,0,0-1.069-1.3c-.453-.489-.964-1.03-1.534-1.612q-3.147-3.234-4.761-4.648c-1.074-.946-1.809-1.59-2.2-1.936q.471-.317,1.178-.9c.474-.393,1.115-1,1.929-1.81.943-.942,1.625-1.667,2.048-2.165a15.121,15.121,0,0,0,.948-1.219,10.005,10.005,0,0,0,.871,1.174c.427.517.929,1.1,1.514,1.752s1.207,1.334,1.88,2.052,1.322,1.4,1.945,2.034l1.281,1.315q.97,1,1.827,1.836a9.788,9.788,0,0,0,1.282,1.117,64.99,64.99,0,0,1-4.09,6.45,47,47,0,0,1-4.826,5.691,29.507,29.507,0,0,1-7.116,5.34,19.793,19.793,0,0,1-7.486,2.285,16.773,16.773,0,0,1-7.307-.961,17.438,17.438,0,0,1-6.538-4.363A23.009,23.009,0,0,1,636.473,315a18.556,18.556,0,0,1-1.2-8.167,20.984,20.984,0,0,1,2.4-8.025,30.3,30.3,0,0,1,5.525-7.41,27.462,27.462,0,0,1,5.78-4.558,29.6,29.6,0,0,1,6.038-2.534q.7,1.354,1.372,2.645a28.962,28.962,0,0,0,1.487,2.525l-.55.549a13.6,13.6,0,0,0-5.966.258" transform="translate(505.681 232.954)"/>
                <path id="Path_123" data-name="Path 123" d="M660.26,280.48q-2.775-2.273-5.641-4.481.7-.65,1.484-1.443t1.687-1.854c.6-.706,1.122-1.363,1.561-1.963s.837-1.168,1.193-1.7q2.576,2.549,5.205,4.991t6.107,5.478l5.7,4.976q3.475,3.04,6.248,5.309t5.514,4.376a17.5,17.5,0,0,0-1.419,1.5c-.485.568-1.024,1.2-1.624,1.912s-1.146,1.339-1.627,1.909a17.3,17.3,0,0,0-1.25,1.641q-2.452-2.434-5.083-4.88t-6.1-5.484l-5.7-4.972q-3.478-3.037-6.25-5.312" transform="translate(521.129 220.444)"/>
                <path id="Path_124" data-name="Path 124" d="M676.659,265.273a14.121,14.121,0,0,0-1.652-1.032q-.485.682-1.153,1.712t-1.406,2.221c-.494.79-.981,1.606-1.467,2.449s-.925,1.63-1.308,2.362c-.286-.3-.573-.595-.873-.881a9.325,9.325,0,0,0-.936-.79,9.01,9.01,0,0,0-1.038-.65c-.361-.195-.727-.38-1.1-.56q1.142-1.515,2.076-2.731t1.877-2.5q.943-1.277,2.048-2.784t2.622-3.646q1.522-2.131,2.583-3.673c.706-1.026,1.352-1.972,1.942-2.829s1.153-1.7,1.694-2.529,1.131-1.717,1.765-2.68c.289.3.578.595.878.881a8.346,8.346,0,0,0,.936.788,9.176,9.176,0,0,0,1.038.655c.359.193.727.38,1.1.559-.521.542-1.087,1.166-1.7,1.865s-1.207,1.412-1.78,2.121-1.112,1.388-1.615,2.032-.918,1.2-1.241,1.648a5.588,5.588,0,0,0,.578.526c.26.211.569.449.929.711l2.376,1.734,11.22,8.184q3.726,2.718,6.687,4.736t5.871,3.872a16.809,16.809,0,0,0-1.286,1.617q-.647.906-1.455,2.045t-1.453,2.045a16.918,16.918,0,0,0-1.108,1.748q-2.654-2.213-5.482-4.416t-6.556-4.918l-11.22-8.184q-1.3-.95-2.392-1.712" transform="translate(529.972 202.166)"/>
                <path id="Path_125" data-name="Path 125" d="M726.3,235.063c-.487.753-.914,1.485-1.293,2.192s-.745,1.4-1.114,2.092-.74,1.39-1.117,2.1-.715,1.423-1.017,2.149q-2.8-.513-5.735-1.03t-5.909-.939q-.889,1.553-1.753,3.117c-.575,1.044-1.142,2.089-1.7,3.144q-.684,1.283-1.342,2.574t-1.293,2.605q1.964,2.344,3.995,4.537t4.056,4.188a7.588,7.588,0,0,0-.715,1.1q-.3.565-.616,1.159c-.207.395-.419.79-.629,1.184a10.733,10.733,0,0,0-.586,1.334q-.948-1.283-2.664-3.49t-3.91-4.936q-2.193-2.726-4.709-5.851t-5.1-6.286q-2.586-3.163-5.108-6.226t-4.713-5.658q.358-.442.668-.846a6.6,6.6,0,0,0,.573-.9,6.673,6.673,0,0,0,.424-.973c.108-.324.219-.666.329-1.03q4.981.68,10.656,1.457t11.2,1.441q5.528.658,10.53,1.17t8.594.617m-33.581,4.19q2.239,2.882,4.483,5.569t4.637,5.394l4.8-9.024q-3.543-.538-6.958-1.032t-6.962-.908" transform="translate(543.982 188.764)"/>
                <path id="Path_126" data-name="Path 126" d="M699.864,218.646q-3.446-.944-6.949-1.8.383-.879.785-1.925t.8-2.389c.271-.888.485-1.7.65-2.434s.3-1.408.411-2.038q3.373,1.28,6.75,2.44t7.772,2.52l7.2,2.227q3.012.933,5.823,1.774T728,218.446q.916-3.051,1.681-6.153t1.327-6.328q.552.287,1.011.489a13.243,13.243,0,0,0,1.3.46,12.749,12.749,0,0,0,1.341.357,4.094,4.094,0,0,0,.841.086q-.49,1.43-1.153,3.539t-1.78,5.806q-.986,3.267-1.6,5.3-.6,1.984-.961,3.186t-.524,1.83c-.1.417-.185.775-.235,1.07q-3.214-1.225-6.593-2.393t-7.768-2.52l-7.2-2.225c-2.926-.9-5.535-1.677-7.831-2.307" transform="translate(551.617 168.761)"/>
                <path id="Path_127" data-name="Path 127" d="M35.642,344.571a5.99,5.99,0,0,0-1.121-4.319,4.788,4.788,0,0,0-6.775-.97,13.3,13.3,0,0,0-2.615,2.946c-.808,1.2-1.6,2.5-2.365,3.893a21.536,21.536,0,0,1-2.719,3.864,12.5,12.5,0,0,1-3.691,2.847,9.6,9.6,0,0,1-5.261.793,11.878,11.878,0,0,1-4.948-1.508,11.192,11.192,0,0,1-3.651-3.36A13.683,13.683,0,0,1,.42,343.874a20.121,20.121,0,0,1-.327-6.128,20.892,20.892,0,0,1,1.1-5.333,10.422,10.422,0,0,1,1.88-3.457q1.88.726,3.445,1.264t3.413.979l-.093,1.059a7.209,7.209,0,0,0-2.358.633,7.326,7.326,0,0,0-2.037,1.392,6.95,6.95,0,0,0-1.493,2.174,9.068,9.068,0,0,0-.731,2.969q-.291,3.351,1.223,5.089a5.569,5.569,0,0,0,3.827,1.945,4.848,4.848,0,0,0,3.524-.922,12.2,12.2,0,0,0,2.606-2.862c.787-1.166,1.566-2.451,2.333-3.843a20.806,20.806,0,0,1,2.691-3.81,12.045,12.045,0,0,1,3.655-2.767,9.781,9.781,0,0,1,5.257-.766,11.855,11.855,0,0,1,4.981,1.483,10.958,10.958,0,0,1,3.45,3.089,12.113,12.113,0,0,1,1.913,4.194,14.709,14.709,0,0,1,.354,4.84,17.428,17.428,0,0,1-1.171,5.209,12.186,12.186,0,0,1-2.322,3.7c-.815-.411-1.606-.77-2.374-1.083s-1.742-.708-2.924-1.19l.074-.837a6.678,6.678,0,0,0,5.324-6.328" transform="translate(0 269.536)"/>
                <path id="Path_128" data-name="Path 128" d="M33.372,365.931a13.788,13.788,0,0,0,1.816-.69q-.234-.8-.632-1.972t-.868-2.487q-.474-1.318-1.011-2.673c-.361-.91-.708-1.738-1.045-2.493.411-.046.815-.1,1.221-.164a8.907,8.907,0,0,0,1.193-.266,8.252,8.252,0,0,0,1.144-.433q.558-.254,1.11-.535c.32,1.226.6,2.34.857,3.333s.519,2.007.8,3.035.586,2.141.918,3.348.744,2.647,1.234,4.332.92,3.124,1.288,4.319.706,2.291,1.015,3.288.621,1.967.934,2.9.647,1.959,1.008,3.058c-.411.042-.819.1-1.221.16a9.6,9.6,0,0,0-1.191.267,9.073,9.073,0,0,0-1.144.433c-.374.169-.745.346-1.112.533q-.156-1.122-.413-2.5T38.706,378q-.3-1.343-.595-2.542c-.194-.793-.37-1.463-.526-2a6.079,6.079,0,0,0-.765.146c-.325.075-.7.178-1.123.306l-2.811.841-13.259,3.966q-4.4,1.315-7.793,2.445t-6.617,2.331a17.829,17.829,0,0,0-.474-2.021c-.207-.717-.444-1.521-.7-2.418s-.5-1.7-.7-2.416a17.47,17.47,0,0,0-.688-1.954Q6,373.912,9.453,373t7.856-2.232L30.568,366.8q1.538-.458,2.8-.866" transform="translate(2.108 290.236)"/>
                <path id="Path_129" data-name="Path 129" d="M35.369,422.812q-.76-1.113-1.518-2.036c-.506-.62-1.006-1.23-1.5-1.836l-1.5-1.838q-.757-.928-1.581-1.761,1.522-2.44,3.1-4.994t3.082-5.2q-1.086-1.416-2.193-2.818c-.736-.93-1.482-1.859-2.233-2.778q-.919-1.124-1.854-2.231t-1.895-2.189q-2.883.955-5.652,2.041t-5.356,2.229a8.569,8.569,0,0,0-.742-1.086c-.271-.329-.546-.668-.83-1.013s-.564-.691-.846-1.035a10.136,10.136,0,0,0-1-1.052q1.53-.409,4.2-1.188t5.985-1.814q3.316-1.029,7.123-2.218t7.669-2.425q3.866-1.239,7.614-2.451t6.951-2.3c.18.333.354.65.524.946a6.448,6.448,0,0,0,.6.873,6.308,6.308,0,0,0,.735.766c.253.222.524.457.819.7q-2.5,4.41-5.345,9.452t-5.534,9.97q-2.681,4.937-5.025,9.45t-3.8,7.829m8.8-33.094q-3.475,1.015-6.777,2.112t-6.681,2.323l6.448,7.9q1.821-3.128,3.562-6.144t3.448-6.191" transform="translate(10.234 313.677)"/>
                <path id="Path_130" data-name="Path 130" d="M62.791,418.344q2.023-1.1,4.109-2.409t4.136-2.66q2.053-1.356,3.955-2.578c.3.289.612.569.939.85a10.156,10.156,0,0,0,1.044.788,10.8,10.8,0,0,0,1.139.646c.384.186.8.377,1.243.58q-1.63.8-4.181,2.161t-5.492,2.971q-2.939,1.613-5.977,3.32t-5.564,3.193q-.722,1.127-1.505,2.251t-1.534,2.3q-1.53,2.4-2.965,4.8t-2.761,5.2q-.916-.737-1.913-1.39t-1.974-1.292c-.648-.429-1.308-.857-1.972-1.294s-1.343-.839-2.033-1.2c.982-1.4,2.033-2.807,3.149-4.206A52.51,52.51,0,0,0,47.754,426q.687-1.083,1.372-2.2c.454-.746.894-1.49,1.329-2.232q.339-3.111.679-6.99t.666-7.541c.219-2.434.406-4.652.559-6.641s.255-3.439.3-4.341q1.008.794,1.985,1.536c.648.489,1.331.973,2.044,1.441s1.414.893,2.11,1.284,1.417.786,2.17,1.19c-.214,1.5-.444,3.18-.677,5.027s-.46,3.659-.672,5.433-.392,3.393-.533,4.858-.217,2.571-.217,3.324l.093.064a40.93,40.93,0,0,0,3.826-1.865" transform="translate(33.025 324.513)"/>
                <path id="Path_131" data-name="Path 131" d="M111.115,423.45a5.769,5.769,0,0,0-4.388.435,4.662,4.662,0,0,0-2.41,3.022,4.739,4.739,0,0,0,.384,3.593,13.364,13.364,0,0,0,2.448,3.086q1.568,1.5,3.42,2.986a21.172,21.172,0,0,1,3.33,3.342,12.537,12.537,0,0,1,2.184,4.145,9.962,9.962,0,0,1-.063,5.385,12.187,12.187,0,0,1-2.263,4.707,11.173,11.173,0,0,1-3.86,3.113,13.259,13.259,0,0,1-5.087,1.3,19.377,19.377,0,0,1-6.026-.653,20.2,20.2,0,0,1-5.018-1.954,10.265,10.265,0,0,1-3.071-2.432q1.013-1.766,1.782-3.244t1.5-3.255l1.018.262A7.513,7.513,0,0,0,96.266,452a6.856,6.856,0,0,0,1.879,1.843,8.911,8.911,0,0,0,2.78,1.2q3.217.824,5.151-.411a5.644,5.644,0,0,0,2.507-3.517,5,5,0,0,0-.338-3.668,12.176,12.176,0,0,0-2.371-3.067q-1.517-1.46-3.369-2.946a20.477,20.477,0,0,1-3.283-3.3,12.145,12.145,0,0,1-2.112-4.1,10.13,10.13,0,0,1,.09-5.38,12.27,12.27,0,0,1,2.243-4.743,10.906,10.906,0,0,1,3.565-2.953,11.662,11.662,0,0,1,4.388-1.244,14.123,14.123,0,0,1,4.776.417,16.959,16.959,0,0,1,4.889,2,12.162,12.162,0,0,1,3.237,2.913q-.8,1.124-1.437,2.2t-1.624,2.733l-.8-.207q-.55-5.112-5.318-6.335" transform="translate(72.201 343.865)"/>
                <path id="Path_132" data-name="Path 132" d="M118.037,442.42a19.993,19.993,0,0,1,2.547-7.507,19.36,19.36,0,0,1,5.1-5.74,19.658,19.658,0,0,1,7.206-3.355,23.369,23.369,0,0,1,8.865-.351,26.662,26.662,0,0,1,8,2.352,18.761,18.761,0,0,1,6.08,4.572,17.251,17.251,0,0,1,3.574,6.8,22.2,22.2,0,0,1,.438,8.966,19.444,19.444,0,0,1-14.963,16.531,23.179,23.179,0,0,1-8.639.327,29.949,29.949,0,0,1-7.991-2.211,17.562,17.562,0,0,1-6.155-4.414,17.115,17.115,0,0,1-3.637-6.781,22.444,22.444,0,0,1-.431-9.191m32.987,3.33a22.448,22.448,0,0,0,0-6.59,15.157,15.157,0,0,0-1.782-5.194,10.888,10.888,0,0,0-3.366-3.6,11.071,11.071,0,0,0-4.7-1.754,9.425,9.425,0,0,0-5.2.666,11.987,11.987,0,0,0-4.253,3.168,17.914,17.914,0,0,0-3.066,5.145,27.2,27.2,0,0,0-1.7,6.582,26.125,26.125,0,0,0-.081,7.621,13.676,13.676,0,0,0,1.855,5.258,9.485,9.485,0,0,0,3.307,3.2,11.877,11.877,0,0,0,4.273,1.439,10.916,10.916,0,0,0,4.853-.4,10.716,10.716,0,0,0,4.356-2.673,17.21,17.21,0,0,0,3.425-5.121,27.445,27.445,0,0,0,2.08-7.741" transform="translate(93.752 348.399)"/>
                <path id="Path_133" data-name="Path 133" d="M184.871,463.955a13.658,13.658,0,0,0-.544,2.36,24.564,24.564,0,0,1-11.367,1.807,25.163,25.163,0,0,1-8.533-1.741,18.191,18.191,0,0,1-6.247-4.139,16.654,16.654,0,0,1-3.759-6.08,19.621,19.621,0,0,1-1.069-7.448,24.335,24.335,0,0,1,2.213-9.8,18.028,18.028,0,0,1,5.086-6.4A19.051,19.051,0,0,1,167.8,429.1a29.372,29.372,0,0,1,8.393-.815,21.445,21.445,0,0,1,3.03.358,30.813,30.813,0,0,1,3.069.72,25.68,25.68,0,0,1,2.807.99,14.439,14.439,0,0,1,2.247,1.163,17.908,17.908,0,0,0-.973,2.789,21.778,21.778,0,0,0-.535,2.864l-.774-.031a13.741,13.741,0,0,0-4.147-4.024,11.193,11.193,0,0,0-5.146-1.368,10.759,10.759,0,0,0-4.49.813,12,12,0,0,0-4.192,2.9,15.816,15.816,0,0,0-3.177,5.16,23.243,23.243,0,0,0-1.458,7.647,20.805,20.805,0,0,0,.85,7.414,14.7,14.7,0,0,0,2.8,5.111,11.477,11.477,0,0,0,4.081,3.007,13.188,13.188,0,0,0,4.688,1.1,12.546,12.546,0,0,0,2.721-.189,17.8,17.8,0,0,0,2.741-.722,13.947,13.947,0,0,0,2.57-1.206,11.323,11.323,0,0,0,2.145-1.647l.7.479c-.33.771-.62,1.554-.875,2.345" transform="translate(122.065 350.896)"/>
                <path id="Path_134" data-name="Path 134" d="M185.424,436.207q-.17-3.613-.445-7.25.94.1,2.048.162t2.491.045q1.382-.022,2.488-.125c.736-.066,1.415-.142,2.044-.227q-.167,3.646-.221,7.261t.016,8.264l.12,7.618q.075,4.65.241,8.262t.44,7.079a16.257,16.257,0,0,0-2.048-.08c-.738.013-1.568.024-2.488.038s-1.753.027-2.489.04a16.963,16.963,0,0,0-2.044.145q.167-3.474.223-7.09t-.02-8.265l-.119-7.619q-.07-4.65-.237-8.256" transform="translate(147.258 351.353)"/>
                <path id="Path_135" data-name="Path 135" d="M238.842,465.226c-.891-.016-1.73.005-2.518.056s-1.573.107-2.348.158-1.552.109-2.344.162-1.57.144-2.335.271q-1.067-2.677-2.193-5.467t-2.364-5.565c-1.18.042-2.36.1-3.536.153s-2.356.135-3.533.217q-1.436.093-2.87.22c-.955.085-1.907.176-2.863.278q-.913,2.928-1.663,5.84t-1.342,5.706a7.863,7.863,0,0,0-1.3-.026c-.422.031-.855.058-1.3.087s-.882.062-1.324.093a9.768,9.768,0,0,0-1.426.209q.569-1.5,1.5-4.143t2.044-5.98q1.11-3.329,2.38-7.152t2.54-7.727q1.266-3.9,2.482-7.689t2.222-7.059c.374.051.726.093,1.061.126a6.543,6.543,0,0,0,1.056.015,6.472,6.472,0,0,0,1.043-.156q.49-.115,1.035-.266,2.08,4.634,4.452,9.916t4.758,10.374q2.39,5.087,4.632,9.652t4.056,7.7m-21.379-26.568q-1.215,3.455-2.267,6.806t-2.042,6.85l10.1-.684q-1.441-3.327-2.843-6.519t-2.947-6.453" transform="translate(162.067 350.351)"/>
                <path id="Path_136" data-name="Path 136" d="M234.962,433.583q-.531-3.575-1.169-7.165.948,0,2.055-.051t2.482-.209c.912-.109,1.735-.237,2.459-.378s1.4-.289,2.012-.438q.2,3.643.51,7.247t.844,8.216l.882,7.569q.364,3.171.736,6.117t.677,5.109q3.131-.377,6.241-.917t6.254-1.308c-.029.418-.04.8-.038,1.13a13.84,13.84,0,0,0,.108,1.4,12.827,12.827,0,0,0,.219,1.385,3.846,3.846,0,0,0,.26.813q-1.49.12-3.662.351t-5.965.686q-3.346.4-5.435.648-2.031.243-3.267.391c-.824.1-1.449.182-1.866.249s-.771.138-1.061.209q-.183-3.471-.489-7.072t-.844-8.224l-.88-7.565q-.536-4.615-1.063-8.193" transform="translate(186.118 348.51)"/>
                <path id="Path_137" data-name="Path 137" d="M286.645,435.381q-.938-4.549-1.773-8.065t-1.784-7.034q.943-.085,2.042-.231t2.453-.433c1.193-.251,2.516-.575,3.977-.982s3.382-.855,5.765-1.355a39.827,39.827,0,0,1,8.648-.939,17.592,17.592,0,0,1,7.17,1.494,13.446,13.446,0,0,1,5.4,4.552,21.862,21.862,0,0,1,3.29,8.322,22.224,22.224,0,0,1,.2,8.536,19.516,19.516,0,0,1-2.771,7.137,17.981,17.981,0,0,1-5.138,5.231,19.524,19.524,0,0,1-6.946,2.9q-4.063.857-6.944,1.4t-4.991,1c-.9.187-1.713.362-2.434.513a18.38,18.38,0,0,0-1.983.531q-.482-3.441-1.1-7t-1.554-8.111Zm10.367,9.774.677,3.289c.219,1.061.424,2.029.623,2.9s.323,1.435.377,1.692c.55-.078,1.205-.176,1.974-.3s1.7-.3,2.824-.538a12.359,12.359,0,0,0,8.824-6.266q2.705-4.98.947-13.532a19.6,19.6,0,0,0-2.145-5.9,13.614,13.614,0,0,0-3.459-4.05,11.149,11.149,0,0,0-4.492-2.083,12.544,12.544,0,0,0-5.3.06q-1.951.4-3.15.748c-.8.224-1.609.464-2.425.71.054.26.16.826.323,1.707s.356,1.87.582,2.969l.675,3.291.564,2.742,2.006,9.763Z" transform="translate(225.362 341.134)"/>
                <path id="Path_138" data-name="Path 138" d="M317.553,419.291q-.967-3.474-2.051-6.959.94-.117,2.033-.307c.729-.127,1.539-.3,2.435-.528s1.692-.455,2.392-.691,1.349-.464,1.94-.69q.655,3.591,1.406,7.121t1.864,8.043l1.812,7.4q1.113,4.511,2.076,7.991t2.013,6.8a16.5,16.5,0,0,0-2.013.391l-2.414.608q-1.344.338-2.416.61a17.59,17.59,0,0,0-1.958.606q-.614-3.422-1.369-6.955t-1.863-8.047l-1.814-7.394q-1.107-4.511-2.076-7.992" transform="translate(251.165 336.035)"/>
                <path id="Path_139" data-name="Path 139" d="M360.522,406.471a13.393,13.393,0,0,0-11.2,2.8,13.029,13.029,0,0,0-3.409,4.4,16.9,16.9,0,0,0-1.561,6.144,22.084,22.084,0,0,0,.936,7.74,20.131,20.131,0,0,0,2.576,5.72,14.731,14.731,0,0,0,3.88,4.026,11.8,11.8,0,0,0,4.934,1.97,13.121,13.121,0,0,0,5.8-.466c.458-.133.973-.313,1.541-.537s1.121-.453,1.649-.686a11.836,11.836,0,0,0,1.43-.739,3.691,3.691,0,0,0,.895-.7,12.907,12.907,0,0,0-.327-1.656q-.251-.972-.586-2.16-1.242-4.358-1.988-6.384t-1.017-2.764a14.3,14.3,0,0,0,1.462-.224c.6-.117,1.448-.337,2.547-.655,1.277-.373,2.215-.675,2.818-.913a13.341,13.341,0,0,0,1.41-.613,10.1,10.1,0,0,0,.214,1.456c.129.659.3,1.419.5,2.272s.433,1.758.684,2.713.5,1.865.747,2.729l.506,1.774c.255.9.5,1.728.738,2.5a10.092,10.092,0,0,0,.6,1.6,62.427,62.427,0,0,1-6.636,3.686,45.729,45.729,0,0,1-6.924,2.662,29.143,29.143,0,0,1-8.767,1.248,19.787,19.787,0,0,1-7.655-1.614,17.046,17.046,0,0,1-5.965-4.381,17.8,17.8,0,0,1-3.689-7,23.282,23.282,0,0,1-.875-9.453,18.577,18.577,0,0,1,2.8-7.754,20.692,20.692,0,0,1,5.895-5.889,29.825,29.825,0,0,1,8.348-3.835,27.079,27.079,0,0,1,7.224-1.206,29.365,29.365,0,0,1,6.5.7c-.016,1.015-.032,2.01-.043,2.986a29.274,29.274,0,0,0,.117,2.935l-.744.218a13.734,13.734,0,0,0-5.361-2.66" transform="translate(267.18 329.624)"/>
                <path id="Path_140" data-name="Path 140" d="M367.63,405.345q-1.21-3.4-2.534-6.794c.618-.127,1.288-.28,2-.458s1.516-.411,2.392-.7,1.656-.575,2.34-.859,1.313-.559,1.888-.828q.9,3.531,1.9,7t2.421,7.894l2.328,7.241q1.425,4.424,2.635,7.823t2.484,6.633a17.25,17.25,0,0,0-1.981.535c-.7.231-1.491.493-2.367.78s-1.667.548-2.365.781a18.226,18.226,0,0,0-1.911.75q-.854-3.368-1.852-6.841t-2.421-7.892l-2.333-7.245q-1.42-4.418-2.629-7.82" transform="translate(290.646 324.228)"/>
                <path id="Path_141" data-name="Path 141" d="M392.623,398.688a13.966,13.966,0,0,0-.785-1.8c-.521.191-1.155.44-1.907.751s-1.55.653-2.4,1.019-1.71.762-2.581,1.175-1.669.815-2.394,1.2c-.068-.411-.145-.819-.232-1.226a9.051,9.051,0,0,0-.821-2.318q-.28-.551-.593-1.1,1.792-.587,3.24-1.057t2.944-.979q1.5-.513,3.246-1.121c1.171-.4,2.567-.9,4.2-1.494s3.026-1.108,4.181-1.55,2.218-.844,3.184-1.213,1.9-.742,2.809-1.11,1.891-.766,2.956-1.19c.065.411.142.819.228,1.224a8.915,8.915,0,0,0,.332,1.186,8.745,8.745,0,0,0,.488,1.133c.19.369.384.733.593,1.1q-1.1.218-2.446.559c-.9.229-1.782.468-2.653.724s-1.69.506-2.466.748-1.423.458-1.943.648a5.891,5.891,0,0,0,.181.766q.143.486.365,1.119l.99,2.795,4.666,13.185q1.552,4.375,2.858,7.738t2.673,6.559a16.775,16.775,0,0,0-1.961.593q-1.045.377-2.344.85t-2.344.85a18.337,18.337,0,0,0-1.888.806q-.951-3.343-2.049-6.783t-2.649-7.818l-4.664-13.183q-.542-1.525-1.015-2.785" transform="translate(303.236 316.833)"/>
                <path id="Path_142" data-name="Path 142" d="M443.485,410.127q-1.277.387-2.382.833c-.738.295-1.464.59-2.184.877s-1.448.58-2.188.879-1.449.62-2.145.981q-1.818-2.224-3.734-4.527t-3.928-4.57q-1.668.611-3.319,1.245c-1.108.424-2.205.855-3.3,1.294-.893.36-1.782.722-2.665,1.1s-1.764.757-2.644,1.15q.011,3.067.178,6.077t.445,5.847a7.788,7.788,0,0,0-1.25.382l-1.211.484c-.408.166-.819.329-1.23.5a10.1,10.1,0,0,0-1.3.639c.061-1.066.117-2.536.18-4.406s.108-3.981.145-6.326.07-4.861.106-7.547.07-5.4.09-8.144.034-5.434.047-8.091.005-5.129-.014-7.407q.555-.1,1.051-.211a6.065,6.065,0,0,0,1.006-.315,6.6,6.6,0,0,0,.947-.468c.289-.177.587-.369.9-.577q3.384,3.772,7.233,8.063t7.66,8.407q3.809,4.107,7.317,7.758t6.187,6.075m-28.371-18.683q-.116,3.665-.1,7.183t.122,7.152l9.41-3.777q-2.373-2.721-4.672-5.325t-4.756-5.233" transform="translate(326.894 311.215)"/>
                <path id="Path_143" data-name="Path 143" d="M434.6,380.6q-1.533-3.264-3.174-6.513c.605-.184,1.252-.4,1.952-.649s1.467-.559,2.313-.932,1.591-.739,2.247-1.09,1.25-.686,1.8-1.01q1.237,3.428,2.567,6.779t3.168,7.616l3.016,6.981q1.263,2.923,2.466,5.633t2.114,4.689q2.888-1.28,5.711-2.714t5.606-3.1q.137.611.289,1.1a13.261,13.261,0,0,0,.506,1.3,12.919,12.919,0,0,0,.6,1.259,4.034,4.034,0,0,0,.481.7q-1.385.551-3.4,1.415t-5.509,2.411q-3.09,1.37-5.016,2.223-1.872.83-3.012,1.337c-.758.335-1.333.6-1.712.788s-.7.36-.954.513q-1.177-3.269-2.5-6.622t-3.17-7.618l-3.016-6.979q-1.84-4.26-3.371-7.525" transform="translate(343.454 303.5)"/>
                <path id="Path_144" data-name="Path 144" d="M56.969,366.509a5.807,5.807,0,0,0,3.779,2.3,4.591,4.591,0,0,0,3.714-.973,4.729,4.729,0,0,0,1.805-3.12,13.672,13.672,0,0,0-.16-3.959q-.374-2.148-.991-4.461A21.749,21.749,0,0,1,64.4,351.6a12.663,12.663,0,0,1,.681-4.648,9.836,9.836,0,0,1,3.217-4.29,11.978,11.978,0,0,1,4.582-2.416,10.989,10.989,0,0,1,4.932-.173,13.223,13.223,0,0,1,4.849,2.029,19.7,19.7,0,0,1,4.46,4.155,20.778,20.778,0,0,1,2.885,4.6,10.493,10.493,0,0,1,1.035,3.806c-1.232.537-2.344,1.05-3.337,1.53s-2.028,1.053-3.116,1.714l-.666-.824a7.385,7.385,0,0,0,1.254-2.123,7.529,7.529,0,0,0,.5-2.438,6.969,6.969,0,0,0-.429-2.611,9.007,9.007,0,0,0-1.525-2.644q-2.1-2.6-4.382-2.778a5.521,5.521,0,0,0-4.077,1.319,4.941,4.941,0,0,0-1.889,3.149,12.5,12.5,0,0,0,.1,3.892q.364,2.09.977,4.4a20.807,20.807,0,0,1,.7,4.63,12.2,12.2,0,0,1-.711,4.566,10.008,10.008,0,0,1-3.233,4.268,11.956,11.956,0,0,1-4.591,2.456,10.725,10.725,0,0,1-4.6.227,11.783,11.783,0,0,1-4.259-1.648,14.337,14.337,0,0,1-3.59-3.213,17.35,17.35,0,0,1-2.748-4.563,12.32,12.32,0,0,1-.889-4.29c.866-.282,1.683-.586,2.446-.9s1.739-.726,2.91-1.219l.528.653a6.772,6.772,0,0,0,.551,8.3" transform="translate(40.229 278.48)"/>
                <path id="Path_145" data-name="Path 145" d="M47.623,340.881a14.086,14.086,0,0,0-1.724.9c.221.513.506,1.144.86,1.883s.738,1.53,1.155,2.365.853,1.683,1.315,2.536.905,1.636,1.329,2.349c-.4.091-.8.2-1.194.306a8.11,8.11,0,0,0-1.151.409,9.31,9.31,0,0,0-1.085.562c-.352.216-.7.437-1.04.668-.463-1.181-.875-2.249-1.245-3.211s-.747-1.927-1.144-2.913-.833-2.056-1.306-3.213-1.047-2.54-1.733-4.155-1.277-2.986-1.782-4.13-.968-2.191-1.394-3.144-.848-1.878-1.266-2.773-.873-1.863-1.36-2.913c.4-.093.8-.2,1.194-.308a9.7,9.7,0,0,0,1.151-.408,8.924,8.924,0,0,0,1.085-.566q.528-.319,1.044-.668c.187.731.422,1.545.7,2.438s.571,1.774.88,2.638.6,1.677.889,2.447.535,1.412.756,1.927a6.755,6.755,0,0,0,.744-.231c.313-.117.672-.264,1.078-.439l2.692-1.175,12.7-5.531q4.216-1.839,7.45-3.368t6.3-3.109a17.425,17.425,0,0,0,.706,1.95c.293.69.62,1.457.982,2.318s.693,1.628.982,2.314A17.984,17.984,0,0,0,77.1,328.5q-3.238,1.168-6.557,2.493t-7.538,3.16l-12.7,5.529q-1.474.644-2.682,1.2" transform="translate(27.75 262.245)"/>
                <path id="Path_146" data-name="Path 146" d="M66.244,289.993c.031.9.093,1.748.185,2.543s.187,1.59.278,2.365.183,1.57.275,2.365.221,1.581.386,2.352q-2.584,1.212-5.279,2.493t-5.367,2.676q.156,1.785.334,3.571c.12,1.188.25,2.372.388,3.56.111.964.235,1.932.365,2.893s.273,1.921.422,2.884q2.931.778,5.843,1.384t5.694,1.064a8.013,8.013,0,0,0,.043,1.321c.049.428.1.864.153,1.31s.1.888.154,1.334a10.628,10.628,0,0,0,.278,1.434q-1.5-.5-4.162-1.308c-1.771-.537-3.77-1.128-6-1.759s-4.614-1.319-7.17-2.047-5.137-1.454-7.745-2.176-5.178-1.426-7.712-2.121-4.885-1.321-7.068-1.887q.043-.57.066-1.083a6.762,6.762,0,0,0-.04-1.066,6.566,6.566,0,0,0-.207-1.046c-.1-.327-.2-.671-.314-1.032q4.459-2.344,9.55-5.012t9.984-5.345q4.9-2.669,9.279-5.171t7.384-4.5m-25.1,22.98q3.462,1.051,6.825,1.945t6.856,1.719l-1.191-10.185q-3.2,1.626-6.277,3.209t-6.213,3.311" transform="translate(23.921 237.611)"/>
                <path id="Path_147" data-name="Path 147" d="M45.432,276.467q-1.837-1.405-3.872-2.782t-4.108-2.709c-1.381-.886-2.7-1.738-3.959-2.569.131-.395.253-.8.37-1.221a9.912,9.912,0,0,0,.271-1.288,9.69,9.69,0,0,0,.106-1.317c.009-.431.011-.892.005-1.385q1.4,1.168,3.682,2.953t4.952,3.822q2.667,2.041,5.465,4.128t5.18,3.8c.876.131,1.757.28,2.646.451s1.789.324,2.7.459q2.788.415,5.537.739t5.816.386a23.652,23.652,0,0,0-.451,2.338q-.175,1.193-.343,2.352t-.341,2.358c-.117.793-.192,1.587-.232,2.372q-2.5-.483-5.087-1.154a50.831,50.831,0,0,0-5.214-1.057c-.837-.126-1.688-.24-2.549-.351s-1.71-.207-2.554-.3q-2.939.982-6.566,2.278t-7.044,2.524q-3.413,1.217-6.193,2.249t-4.023,1.523c.2-.835.381-1.659.551-2.465s.323-1.63.447-2.483.214-1.67.273-2.476.117-1.634.165-2.5q2.163-.639,4.8-1.465t5.157-1.643q2.522-.81,4.582-1.525t3.077-1.181l.016-.115a41.718,41.718,0,0,0-3.262-2.749" transform="translate(23.586 215.655)"/>
                <path id="Path_148" data-name="Path 148" d="M53.039,223.253a5.992,5.992,0,0,0-.668,4.414,4.672,4.672,0,0,0,2.3,3.111,4.583,4.583,0,0,0,3.535.509,13.048,13.048,0,0,0,3.554-1.647q1.821-1.165,3.7-2.62a21.239,21.239,0,0,1,4.018-2.445,12.227,12.227,0,0,1,4.5-1.124,9.6,9.6,0,0,1,5.14,1.39,11.989,11.989,0,0,1,3.944,3.38,11.3,11.3,0,0,1,2.028,4.556,13.709,13.709,0,0,1-.014,5.314,20,20,0,0,1-2.109,5.753,20.716,20.716,0,0,1-3.1,4.448,10.3,10.3,0,0,1-3.087,2.413q-1.436-1.425-2.662-2.547t-2.744-2.272l.5-.939a7.2,7.2,0,0,0,4.828-.087,6.774,6.774,0,0,0,2.225-1.388,9.041,9.041,0,0,0,1.837-2.432,6.634,6.634,0,0,0,.876-5.158,5.637,5.637,0,0,0-2.75-3.328,4.83,4.83,0,0,0-3.594-.575,12.119,12.119,0,0,0-3.515,1.576q-1.77,1.13-3.65,2.582a20.343,20.343,0,0,1-3.964,2.411,11.8,11.8,0,0,1-4.44,1.063A9.785,9.785,0,0,1,54.6,238.2a12,12,0,0,1-3.986-3.369A11.138,11.138,0,0,1,48.66,230.6a12.247,12.247,0,0,1-.106-4.616,14.731,14.731,0,0,1,1.577-4.587,17.381,17.381,0,0,1,3.123-4.3,12.04,12.04,0,0,1,3.583-2.46c.589.706,1.171,1.354,1.753,1.95l2.213,2.271-.4.737a6.6,6.6,0,0,0-7.369,3.661" transform="translate(38.518 175.865)"/>
                <path id="Path_149" data-name="Path 149" d="M71.642,225.658a19.653,19.653,0,0,1-7.91-13.089,20.375,20.375,0,0,1,.485-8.016,24.17,24.17,0,0,1,3.883-8.085,27.116,27.116,0,0,1,5.826-6.028,18.6,18.6,0,0,1,6.854-3.269,16.8,16.8,0,0,1,7.6.022,21.449,21.449,0,0,1,8.007,3.848,19.256,19.256,0,0,1,5.338,5.9,19.9,19.9,0,0,1,2.513,7.316,20.268,20.268,0,0,1-.537,7.947,23.975,23.975,0,0,1-3.8,7.874,30.435,30.435,0,0,1-5.7,6.084,17.439,17.439,0,0,1-6.75,3.413,16.607,16.607,0,0,1-7.619.04,21.734,21.734,0,0,1-8.2-3.957m18.48-27.875a21.641,21.641,0,0,0-5.731-3.109,14.549,14.549,0,0,0-5.363-.862,10.644,10.644,0,0,0-4.724,1.3,11.2,11.2,0,0,0-3.752,3.369,9.8,9.8,0,0,0-1.875,4.952,12.259,12.259,0,0,0,.751,5.3,17.877,17.877,0,0,0,3.026,5.169,26.731,26.731,0,0,0,4.921,4.623,25.29,25.29,0,0,0,6.592,3.673,13.26,13.26,0,0,0,5.455.828,9.4,9.4,0,0,0,4.348-1.437,12.021,12.021,0,0,0,3.271-3.135,11.367,11.367,0,0,0,1.943-4.523,11.026,11.026,0,0,0-.271-5.151,17.145,17.145,0,0,0-2.838-5.478,26.919,26.919,0,0,0-5.753-5.514" transform="translate(50.578 153.014)"/>
                <path id="Path_150" data-name="Path 150" d="M125.048,182.742a13.961,13.961,0,0,0,1.444,1.932,25.326,25.326,0,0,1-5.9,10.012,25.6,25.6,0,0,1-6.777,5.535,18.013,18.013,0,0,1-7.138,2.216,16.254,16.254,0,0,1-7.014-.957,19.03,19.03,0,0,1-6.337-3.928,24.043,24.043,0,0,1-6.028-7.989,18.3,18.3,0,0,1-1.606-8.051,19.567,19.567,0,0,1,1.972-7.752,30.034,30.034,0,0,1,4.747-7.057,22.167,22.167,0,0,1,2.207-2.132,31.644,31.644,0,0,1,2.509-1.934,25.877,25.877,0,0,1,2.547-1.552A14.415,14.415,0,0,1,102,160.076a17.818,17.818,0,0,0,1.494,2.543,21.051,21.051,0,0,0,1.832,2.245l-.521.582a13.45,13.45,0,0,0-5.7.664,11.274,11.274,0,0,0-4.329,3.131,10.974,10.974,0,0,0-2.252,4.017,12.241,12.241,0,0,0-.476,5.122,16.01,16.01,0,0,0,1.888,5.776,23,23,0,0,0,4.873,6.022,20.246,20.246,0,0,0,6.168,4.074,14.155,14.155,0,0,0,5.672,1.086,11.274,11.274,0,0,0,4.893-1.257,13.266,13.266,0,0,0,3.829-2.947,12.751,12.751,0,0,0,1.593-2.24,17.483,17.483,0,0,0,1.205-2.6,14.273,14.273,0,0,0,.729-2.771,11.711,11.711,0,0,0,.122-2.722l.81-.24c.375.75.781,1.474,1.221,2.18" transform="translate(68.212 131.161)"/>
                <path id="Path_151" data-name="Path 151" d="M108.9,157.5q-2.557-2.519-5.214-4.985c.5-.388,1.04-.822,1.607-1.3s1.185-1.041,1.846-1.692,1.243-1.252,1.735-1.81.936-1.082,1.336-1.581q2.338,2.778,4.738,5.454t5.582,6.02l5.225,5.484q3.187,3.346,5.744,5.867t5.1,4.867a16.649,16.649,0,0,0-1.55,1.357q-.795.778-1.789,1.752t-1.792,1.75a17.9,17.9,0,0,0-1.4,1.519q-2.22-2.655-4.619-5.334t-5.582-6.022l-5.227-5.48q-3.187-3.343-5.744-5.867" transform="translate(82.545 119.734)"/>
                <path id="Path_152" data-name="Path 152" d="M163.191,149.065q-1.075.794-1.979,1.577t-1.782,1.55c-.586.513-1.182,1.032-1.782,1.557a23.644,23.644,0,0,0-1.71,1.636q-2.435-1.5-4.99-3.042t-5.187-3.018q-1.379,1.127-2.739,2.274t-2.7,2.316q-1.094.952-2.162,1.921c-.718.65-1.426,1.3-2.128,1.963q1,2.9,2.128,5.684t2.3,5.378a8.4,8.4,0,0,0-1.058.775c-.32.282-.65.568-.984.859l-1.006.875a10.046,10.046,0,0,0-1.018,1.037q-.434-1.542-1.255-4.226t-1.906-6.026q-1.083-3.34-2.33-7.168t-2.545-7.721q-1.293-3.894-2.565-7.667t-2.4-6.994c.33-.186.638-.369.921-.546a6.13,6.13,0,0,0,.853-.631,6.523,6.523,0,0,0,.744-.757q.323-.39.668-.842l9.438,5.227q5.025,2.786,9.949,5.407t9.42,4.91q4.494,2.29,7.8,3.691M130.355,140.8q1.075,3.5,2.218,6.823t2.421,6.721l7.673-6.686q-3.117-1.785-6.132-3.486t-6.18-3.371" transform="translate(98.232 106.378)"/>
                <path id="Path_153" data-name="Path 153" d="M146.5,124.4q-2.258-2.795-4.623-5.551c.542-.326,1.121-.7,1.742-1.1s1.291-.9,2.024-1.472,1.37-1.1,1.924-1.6,1.051-.972,1.5-1.417q2.015,3.027,4.1,5.958t4.884,6.622l4.578,6.046q1.918,2.533,3.723,4.87t3.166,4.034q2.5-1.94,4.9-4.021t4.708-4.366c.187.373.368.7.541.993a13.9,13.9,0,0,0,.8,1.144,13.471,13.471,0,0,0,.884,1.075,4.117,4.117,0,0,0,.638.564q-1.218.876-2.969,2.2t-4.776,3.679q-2.675,2.08-4.341,3.379-1.625,1.261-2.611,2.029c-.659.513-1.151.9-1.475,1.183s-.594.517-.806.728q-1.91-2.89-3.994-5.822t-4.88-6.626l-4.58-6.04q-2.794-3.69-5.056-6.488" transform="translate(112.948 92.795)"/>
                <path id="Path_154" data-name="Path 154" d="M192.181,105.254q-2.438-3.938-4.427-6.939t-4.086-5.968q.857-.409,1.836-.935c.652-.349,1.372-.773,2.154-1.268q1.544-.982,3.393-2.322t4.937-3.3a40.172,40.172,0,0,1,7.788-3.924,17.651,17.651,0,0,1,7.236-1.126,13.37,13.37,0,0,1,6.624,2.369,21.6,21.6,0,0,1,5.94,6.641,22.115,22.115,0,0,1,3.122,7.94,19.579,19.579,0,0,1-.151,7.665,18.258,18.258,0,0,1-3.021,6.717,19.776,19.776,0,0,1-5.519,5.16q-3.516,2.235-6.026,3.766t-4.341,2.687q-1.167.748-2.107,1.341a18.285,18.285,0,0,0-1.676,1.2q-1.635-3.057-3.436-6.182t-4.242-7.057Zm13.077,5.513,1.762,2.847q.854,1.375,1.581,2.5t.936,1.454c.487-.266,1.07-.591,1.746-.979s1.494-.882,2.466-1.5a12.512,12.512,0,0,0,6.121-8.982q.83-5.619-3.756-13.019a19.388,19.388,0,0,0-4.034-4.779,13.434,13.434,0,0,0-4.632-2.576,11.037,11.037,0,0,0-4.932-.375,12.684,12.684,0,0,0-4.946,1.921q-1.687,1.075-2.7,1.814c-.674.493-1.351,1-2.031,1.521.138.218.433.715.889,1.485s.977,1.627,1.564,2.578l1.764,2.847,1.471,2.372,5.23,8.444Z" transform="translate(146.215 65.086)"/>
                <path id="Path_155" data-name="Path 155" d="M216.422,77.109q-1.867-3.078-3.844-6.129.87-.374,1.872-.861t2.2-1.177q1.2-.7,2.119-1.325c.611-.422,1.169-.819,1.679-1.2q1.592,3.278,3.267,6.466t3.959,7.227l3.732,6.613q2.282,4.039,4.151,7.114t3.763,5.986a17.511,17.511,0,0,0-1.832.93c-.639.373-1.361.791-2.159,1.254s-1.519.882-2.161,1.252a18.573,18.573,0,0,0-1.721,1.124q-1.511-3.119-3.186-6.315t-3.955-7.227l-3.739-6.612q-2.277-4.036-4.147-7.117" transform="translate(169.229 54.418)"/>
                <path id="Path_156" data-name="Path 156" d="M254.132,56.231a13.448,13.448,0,0,0-10.423,5.014,13.118,13.118,0,0,0-2.473,5,17.061,17.061,0,0,0-.32,6.337,22.1,22.1,0,0,0,2.444,7.4,20.135,20.135,0,0,0,3.655,5.081,14.65,14.65,0,0,0,4.594,3.16,11.785,11.785,0,0,0,5.221.93,13.212,13.212,0,0,0,5.588-1.63c.424-.226.894-.506,1.406-.841s1.008-.666,1.48-1a12.014,12.014,0,0,0,1.256-1.013,3.544,3.544,0,0,0,.738-.862,12.521,12.521,0,0,0-.645-1.554c-.289-.608-.625-1.272-1-2q-2.077-4.014-3.21-5.851c-.754-1.224-1.268-2.056-1.541-2.5a14.677,14.677,0,0,0,1.388-.517c.566-.237,1.352-.62,2.367-1.159,1.176-.622,2.035-1.11,2.585-1.461a14.532,14.532,0,0,0,1.255-.89,10.512,10.512,0,0,0,.5,1.383q.385.936.941,2.125t1.207,2.522c.433.888.858,1.727,1.27,2.52l.844,1.637q.641,1.244,1.216,2.3a9.719,9.719,0,0,0,.907,1.45,63.739,63.739,0,0,1-5.778,4.951,45.444,45.444,0,0,1-6.259,4.012,29.167,29.167,0,0,1-8.345,3,19.761,19.761,0,0,1-7.817-.033,16.824,16.824,0,0,1-6.71-3.087,17.611,17.611,0,0,1-4.993-6.108,23.2,23.2,0,0,1-2.726-9.084,18.645,18.645,0,0,1,1.216-8.165,20.838,20.838,0,0,1,4.614-6.963,30.1,30.1,0,0,1,7.423-5.447,27.045,27.045,0,0,1,6.841-2.644,29.448,29.448,0,0,1,6.505-.635q.275,1.5.548,2.935t.693,2.858l-.684.364a13.627,13.627,0,0,0-5.778-1.523" transform="translate(185.254 42.275)"/>
                <path id="Path_157" data-name="Path 157" d="M263.471,52.041q-1.638-3.209-3.387-6.4c.6-.2,1.241-.444,1.933-.715s1.448-.606,2.279-1.012,1.57-.788,2.211-1.161,1.23-.726,1.764-1.068q1.353,3.384,2.784,6.688t3.418,7.507l3.238,6.877q1.98,4.2,3.614,7.408t3.314,6.251a18.025,18.025,0,0,0-1.895.79c-.665.324-1.415.686-2.243,1.086l-2.247,1.086a17.909,17.909,0,0,0-1.8,1q-1.274-3.231-2.714-6.541t-3.416-7.507l-3.24-6.872q-1.975-4.2-3.612-7.41" transform="translate(207.048 34.153)"/>
                <path id="Path_158" data-name="Path 158" d="M288.148,42.921a13.878,13.878,0,0,0-.905-1.739c-.507.226-1.124.524-1.85.888s-1.5.761-2.324,1.188-1.651.881-2.491,1.357-1.611.932-2.308,1.366q-.143-.611-.313-1.208a8.662,8.662,0,0,0-.417-1.163,9.224,9.224,0,0,0-.564-1.093c-.216-.355-.435-.7-.666-1.048,1.16-.475,2.213-.906,3.158-1.284s1.9-.779,2.865-1.188,2.024-.861,3.161-1.352,2.5-1.083,4.084-1.792,2.942-1.317,4.065-1.845,2.154-1,3.089-1.437,1.846-.875,2.725-1.308,1.836-.9,2.867-1.4c.1.408.2.808.314,1.2a8.4,8.4,0,0,0,.415,1.163,8.771,8.771,0,0,0,.566,1.1c.212.353.435.7.666,1.05-.718.2-1.521.442-2.4.733s-1.744.6-2.594.913-1.654.624-2.409.921-1.39.559-1.895.788a6.181,6.181,0,0,0,.235.75q.178.475.444,1.086l1.184,2.716L302.42,55.1q1.851,4.26,3.389,7.514t3.125,6.353a17.1,17.1,0,0,0-1.918.731c-.675.3-1.435.642-2.277,1.017l-2.277,1.015a17.937,17.937,0,0,0-1.828.939q-1.18-3.269-2.515-6.622t-3.186-7.607l-5.575-12.814q-.647-1.49-1.209-2.705" transform="translate(219.965 24.468)"/>
                <path id="Path_159" data-name="Path 159" d="M339.282,52.439c-.851.262-1.642.548-2.378.842l-2.18.89c-.718.293-1.448.588-2.18.884s-1.451.631-2.141.993q-1.832-2.213-3.756-4.512T322.7,46.984q-1.66.617-3.316,1.257t-3.3,1.31c-.889.358-1.773.733-2.656,1.112s-1.762.766-2.637,1.161q.022,3.07.2,6.077t.471,5.846a7.649,7.649,0,0,0-1.248.386c-.4.16-.8.324-1.207.489l-1.232.5a9.583,9.583,0,0,0-1.293.646q.078-1.6.16-4.414t.117-6.322q.038-3.518.079-7.547t.052-8.143q.014-4.1.013-8.093t-.045-7.407c.37-.065.72-.14,1.049-.215a6,6,0,0,0,1-.317,6.413,6.413,0,0,0,.947-.473c.287-.178.587-.373.9-.58q3.392,3.755,7.263,8.034t7.7,8.369q3.823,4.094,7.351,7.729t6.209,6.048M310.836,33.879q-.1,3.662-.076,7.183t.153,7.154L320.3,44.4q-2.387-2.713-4.695-5.3t-4.774-5.214" transform="translate(243.986 18.238)"/>
                <path id="Path_160" data-name="Path 160" d="M331.447,22.9q-1.315-3.359-2.743-6.71.924-.216,1.99-.52c.713-.2,1.5-.458,2.369-.775s1.638-.628,2.313-.932,1.295-.6,1.861-.891q1.01,3.5,2.116,6.941t2.662,7.809l2.552,7.168q1.072,3,2.092,5.787t1.8,4.819q2.966-1.086,5.873-2.327t5.8-2.709c.066.409.142.781.221,1.108A13.958,13.958,0,0,0,360.764,43a13.674,13.674,0,0,0,.526,1.3,3.782,3.782,0,0,0,.438.737c-.952.3-2.112.7-3.492,1.183s-3.258,1.163-5.654,2.034q-3.174,1.16-5.149,1.881-1.924.707-3.095,1.132t-1.76.675q-.59.243-.986.448-.956-3.343-2.062-6.781T336.869,37.8l-2.552-7.166q-1.557-4.372-2.87-7.734" transform="translate(261.675 10.707)"/>
                <path id="Path_161" data-name="Path 161" d="M161.616,159.426a5.922,5.922,0,0,0-2.236,3.848,4.729,4.729,0,0,0,1,3.753,4.617,4.617,0,0,0,3.1,1.8,12.85,12.85,0,0,0,3.9-.193q2.12-.4,4.393-1.042a21,21,0,0,1,4.625-.761,12.223,12.223,0,0,1,4.6.648,9.719,9.719,0,0,1,4.26,3.222,12.19,12.19,0,0,1,2.428,4.623,11.39,11.39,0,0,1,.212,4.991,13.6,13.6,0,0,1-1.958,4.927,19.785,19.785,0,0,1-4.066,4.556,20.424,20.424,0,0,1-4.51,2.962,10.2,10.2,0,0,1-3.75,1.083q-.811-1.867-1.539-3.368t-1.717-3.142l.808-.682a7.256,7.256,0,0,0,4.514,1.732,6.762,6.762,0,0,0,2.576-.451,8.886,8.886,0,0,0,2.6-1.57,6.555,6.555,0,0,0,2.7-4.465,5.675,5.675,0,0,0-1.333-4.117,4.869,4.869,0,0,0-3.127-1.887,12.04,12.04,0,0,0-3.844.14q-2.053.385-4.332,1.03a20.081,20.081,0,0,1-4.566.746,11.832,11.832,0,0,1-4.514-.679,9.916,9.916,0,0,1-4.242-3.24,12.191,12.191,0,0,1-2.464-4.627,11.215,11.215,0,0,1-.266-4.658,12.112,12.112,0,0,1,1.593-4.328,14.4,14.4,0,0,1,3.143-3.664,17.008,17.008,0,0,1,4.478-2.824,11.886,11.886,0,0,1,4.226-.939c.289.875.591,1.7.914,2.469s.729,1.756,1.225,2.942l-.639.537a6.553,6.553,0,0,0-8.183.63" transform="translate(123.176 125.239)"/>
                <path id="Path_162" data-name="Path 162" d="M183.388,150.553a13.872,13.872,0,0,0-1.27-1.485c-.444.337-.979.768-1.6,1.288s-1.295,1.088-2,1.692-1.414,1.235-2.123,1.892-1.361,1.277-1.943,1.858c-.183-.369-.375-.739-.575-1.1a8.988,8.988,0,0,0-1.46-1.974c-.286-.291-.58-.582-.884-.868q1.538-1.094,2.788-1.978c.833-.582,1.678-1.19,2.529-1.814s1.778-1.3,2.777-2.038,2.193-1.626,3.581-2.68,2.567-1.961,3.544-2.729,1.875-1.466,2.689-2.11,1.6-1.272,2.362-1.9,1.586-1.3,2.479-2.023c.185.375.375.742.575,1.106a9.718,9.718,0,0,0,.663,1.037,9.335,9.335,0,0,0,.8.935q.428.445.885.87-.986.538-2.175,1.263t-2.324,1.488q-1.132.753-2.139,1.446c-.675.464-1.23.862-1.672,1.2a5.989,5.989,0,0,0,.4.679q.275.42.674.957l1.758,2.378,8.291,11.207q2.753,3.72,4.981,6.542t4.461,5.469a17.691,17.691,0,0,0-1.7,1.155l-1.992,1.512q-1.11.841-1.992,1.512a17.618,17.618,0,0,0-1.573,1.332q-1.878-2.912-3.928-5.873t-4.8-6.679l-8.291-11.205q-.959-1.3-1.78-2.362" transform="translate(136.552 110.274)"/>
                <path id="Path_163" data-name="Path 163" d="M236.089,146.456c-.774.44-1.489.89-2.143,1.341s-1.3.9-1.945,1.339-1.288.888-1.943,1.339-1.281.926-1.88,1.43q-2.255-1.766-4.62-3.593t-4.817-3.591c-1,.64-1.988,1.292-2.974,1.945s-1.967,1.324-2.942,2c-.794.544-1.579,1.1-2.36,1.661s-1.563,1.13-2.335,1.707q.671,2.994,1.48,5.889t1.694,5.609a7.7,7.7,0,0,0-1.139.65c-.35.24-.709.486-1.076.74s-.729.5-1.1.755a9.941,9.941,0,0,0-1.124.913q-.261-1.583-.776-4.343t-1.223-6.206q-.706-3.444-1.516-7.39t-1.665-7.965q-.86-4.012-1.7-7.905t-1.608-7.228c.347-.144.672-.293.977-.435a6.41,6.41,0,0,0,.916-.529,6.578,6.578,0,0,0,.824-.668c.241-.238.494-.489.756-.762q4.111,2.934,8.794,6.275t9.288,6.51q4.6,3.166,8.81,5.953t7.344,4.565m-31.708-11.968q.679,3.6,1.446,7.035t1.656,6.954l8.37-5.767q-2.9-2.131-5.706-4.163t-5.765-4.059" transform="translate(157.927 100.908)"/>
                <path id="Path_164" data-name="Path 164" d="M239.019,121.665q-.118-2.325-.388-4.794t-.6-4.929q-.331-2.459-.609-4.719.577-.229,1.16-.495a10.628,10.628,0,0,0,2.211-1.386c.334-.275.684-.568,1.053-.886.009,1.219.056,2.807.136,4.75s.181,4.046.3,6.3.251,4.55.4,6.894.3,4.494.463,6.461q.7,1.141,1.361,2.34c.445.8.909,1.594,1.392,2.389q1.484,2.429,3.007,4.769t3.452,4.752c-.7.347-1.381.737-2.055,1.157s-1.34.837-2,1.254-1.324.828-2,1.25-1.322.873-1.942,1.346q-1.245-2.249-2.4-4.683a52.225,52.225,0,0,0-2.556-4.723c-.445-.733-.9-1.463-1.374-2.2s-.948-1.463-1.424-2.172q-2.632-1.646-5.945-3.619t-6.441-3.841q-3.12-1.861-5.688-3.355t-3.741-2.132c.762-.388,1.5-.777,2.22-1.161s1.437-.8,2.159-1.252,1.406-.913,2.053-1.383,1.306-.962,1.99-1.476q1.875,1.261,4.2,2.771t4.557,2.942q2.242,1.43,4.1,2.569t2.877,1.623l.093-.06a42.188,42.188,0,0,0-.025-4.3" transform="translate(170.994 85.588)"/>
                <path id="Path_165" data-name="Path 165" d="M272.928,86.691a5.9,5.9,0,0,0-3,3.273,4.744,4.744,0,0,0,.176,3.883,4.673,4.673,0,0,0,2.642,2.434,13.05,13.05,0,0,0,3.853.659q2.155.074,4.515-.062a20.968,20.968,0,0,1,4.679.26,12.33,12.33,0,0,1,4.348,1.634,9.78,9.78,0,0,1,3.481,4.074,12.333,12.333,0,0,1,1.392,5.041,11.455,11.455,0,0,1-.851,4.925A13.583,13.583,0,0,1,291.2,117.2a19.722,19.722,0,0,1-4.937,3.564,20.428,20.428,0,0,1-5.031,1.909,10.135,10.135,0,0,1-3.892.242c-.269-1.334-.53-2.54-.79-3.622s-.6-2.229-1.013-3.442l.934-.491a7.358,7.358,0,0,0,4.043,2.676,6.758,6.758,0,0,0,2.61.115,8.907,8.907,0,0,0,2.87-.964,6.519,6.519,0,0,0,3.585-3.772,5.7,5.7,0,0,0-.429-4.316,4.9,4.9,0,0,0-2.655-2.52,11.931,11.931,0,0,0-3.779-.7q-2.093-.068-4.452.062a20.087,20.087,0,0,1-4.618-.266,11.844,11.844,0,0,1-4.262-1.643,9.992,9.992,0,0,1-3.456-4.088,12.265,12.265,0,0,1-1.43-5.052,11.23,11.23,0,0,1,.729-4.608A12.057,12.057,0,0,1,267.7,86.4a14.451,14.451,0,0,1,3.845-2.9,16.957,16.957,0,0,1,4.973-1.783,11.919,11.919,0,0,1,4.329,0q.143,1.378.37,2.613c.151.828.339,1.872.573,3.138l-.736.386a6.562,6.562,0,0,0-8.129-1.168" transform="translate(210.556 66.798)"/>
                <path id="Path_166" data-name="Path 166" d="M290.041,97.873a19.976,19.976,0,0,1-1.873-7.709,19.689,19.689,0,0,1,1.221-7.623,20.073,20.073,0,0,1,4.264-6.774,23.574,23.574,0,0,1,7.263-5.163,26.766,26.766,0,0,1,7.984-2.413,18.574,18.574,0,0,1,7.554.511,16.885,16.885,0,0,1,6.642,3.753,21.825,21.825,0,0,1,5.16,7.3,19.5,19.5,0,0,1,1.846,7.783,19.779,19.779,0,0,1-5.58,14.317,23.438,23.438,0,0,1-7.087,5.021,30.04,30.04,0,0,1-7.9,2.523,17.305,17.305,0,0,1-7.538-.331,16.71,16.71,0,0,1-6.678-3.706,22.1,22.1,0,0,1-5.279-7.488m29.5-15.3a21.984,21.984,0,0,0-3.524-5.535,14.782,14.782,0,0,0-4.276-3.386,10.706,10.706,0,0,0-4.756-1.186A11.008,11.008,0,0,0,302.1,73.57a9.632,9.632,0,0,0-4.012,3.409,12.267,12.267,0,0,0-1.88,5,18.092,18.092,0,0,0,.174,6.006,27.244,27.244,0,0,0,2.091,6.462,25.867,25.867,0,0,0,4.009,6.451,13.48,13.48,0,0,0,4.373,3.4,9.341,9.341,0,0,0,4.49.873,11.78,11.78,0,0,0,4.363-1.13,11.276,11.276,0,0,0,3.865-3,10.921,10.921,0,0,0,2.227-4.638,17.319,17.319,0,0,0,.142-6.189,27.388,27.388,0,0,0-2.394-7.649" transform="translate(229.395 55.734)"/>
                <path id="Path_167" data-name="Path 167" d="M357.184,84.528a14.178,14.178,0,0,0,.492,2.369,24.831,24.831,0,0,1-9.544,6.506,25.122,25.122,0,0,1-8.461,2.078,17.986,17.986,0,0,1-7.387-1.072,16.428,16.428,0,0,1-5.943-3.9,19.343,19.343,0,0,1-4.081-6.293,24.392,24.392,0,0,1-2.089-9.826,18.282,18.282,0,0,1,1.94-7.972,19.351,19.351,0,0,1,5.047-6.166,29.683,29.683,0,0,1,7.267-4.334,23.106,23.106,0,0,1,2.892-.975c1.045-.277,2.071-.5,3.084-.66a25.357,25.357,0,0,1,2.958-.3,13.924,13.924,0,0,1,2.524.089,17.688,17.688,0,0,0,.28,2.946,21.736,21.736,0,0,0,.711,2.825l-.715.3a13.515,13.515,0,0,0-5.439-1.865,11.147,11.147,0,0,0-5.236.959,10.888,10.888,0,0,0-3.727,2.665,12.11,12.11,0,0,0-2.586,4.425,16.06,16.06,0,0,0-.727,6.038,23.3,23.3,0,0,0,1.875,7.554,20.515,20.515,0,0,0,3.865,6.35,14.347,14.347,0,0,0,4.672,3.433,11.282,11.282,0,0,0,4.954.977,13.207,13.207,0,0,0,4.706-1.01,12.622,12.622,0,0,0,2.383-1.341,17.754,17.754,0,0,0,2.186-1.828,14.311,14.311,0,0,0,1.823-2.194,11.552,11.552,0,0,0,1.257-2.411l.833.133c.027.842.086,1.676.187,2.5" transform="translate(254.877 44.214)"/>
                <path id="Path_168" data-name="Path 168" d="M349.26,56.334q-1.371-3.34-2.85-6.663.919-.235,1.981-.555c.709-.207,1.493-.484,2.356-.811s1.627-.659,2.3-.975,1.286-.622,1.846-.917q1.064,3.485,2.227,6.9t2.789,7.765l2.669,7.123q1.63,4.347,3,7.687t2.795,6.508a16.455,16.455,0,0,0-1.954.63q-1.035.4-2.326.893t-2.328.9a17.83,17.83,0,0,0-1.873.842q-1.013-3.329-2.171-6.746t-2.789-7.767l-2.667-7.123q-1.63-4.345-3-7.687" transform="translate(275.771 38.029)"/>
                <path id="Path_169" data-name="Path 169" d="M403.306,69.82q-1.291.333-2.416.724c-.749.264-1.489.52-2.224.775l-2.222.775c-.751.262-1.478.553-2.186.881q-1.719-2.3-3.528-4.694t-3.718-4.749q-1.692.535-3.375,1.086c-1.123.373-2.236.753-3.353,1.141-.907.318-1.81.64-2.712.977s-1.8.675-2.691,1.026q-.129,3.067-.1,6.079t.18,5.858a8.258,8.258,0,0,0-1.264.324c-.4.14-.81.286-1.229.429s-.837.293-1.257.438a9.633,9.633,0,0,0-1.322.579q.156-1.594.375-4.4t.431-6.311q.213-3.512.451-7.538T371.6,55.1q.213-4.1.413-8.082t.323-7.4c.372-.051.724-.1,1.058-.158a6.853,6.853,0,0,0,1.018-.267,6.3,6.3,0,0,0,.966-.429c.3-.164.607-.335.932-.531q3.2,3.922,6.857,8.391t7.271,8.755q3.621,4.276,6.96,8.087t5.9,6.355M375.812,49.841q-.277,3.651-.427,7.17t-.2,7.152l9.568-3.339q-2.242-2.827-4.424-5.536t-4.514-5.447" transform="translate(294.463 31.326)"/>
                <path id="Path_170" data-name="Path 170" d="M396.087,39.806q-1.153-3.42-2.407-6.837c.618-.113,1.29-.255,2.012-.42s1.523-.38,2.4-.655,1.669-.544,2.357-.815,1.32-.537,1.9-.8q.833,3.553,1.773,7.039T406.4,45.26l2.2,7.285c.611,2.032,1.214,4,1.8,5.884s1.11,3.52,1.568,4.905q3.015-.933,5.981-2.023t5.92-2.418c.05.415.1.786.167,1.117a12.643,12.643,0,0,0,.348,1.359,13.719,13.719,0,0,0,.456,1.321,3.966,3.966,0,0,0,.4.759q-1.444.382-3.544,1.006T415.953,66.2l-5.236,1.619c-1.306.4-2.355.73-3.149.972s-1.39.442-1.792.586-.735.277-1.006.4q-.789-3.389-1.726-6.877t-2.276-7.936l-2.2-7.288q-1.339-4.443-2.486-7.872" transform="translate(313.401 24.813)"/>
                <path id="Path_171" data-name="Path 171" d="M446.7,35.1q-1.01-4.533-1.909-8.034t-1.9-7c.627-.069,1.3-.155,2.035-.269s1.55-.266,2.446-.471q1.783-.407,3.962-1.055t5.742-1.459a39.693,39.693,0,0,1,8.628-1.088,17.645,17.645,0,0,1,7.2,1.366,13.427,13.427,0,0,1,5.474,4.459,21.726,21.726,0,0,1,3.434,8.256,22.235,22.235,0,0,1,.35,8.536,19.519,19.519,0,0,1-2.647,7.183,18.021,18.021,0,0,1-5.047,5.323,19.513,19.513,0,0,1-6.9,3.017q-4.041.931-6.919,1.528t-4.972,1.086c-.9.2-1.708.391-2.428.555a17.809,17.809,0,0,0-1.972.569q-.542-3.439-1.221-6.986t-1.692-8.087Zm10.534,9.588.733,3.278q.356,1.588.677,2.887t.4,1.687c.548-.086,1.2-.195,1.967-.335s1.7-.333,2.814-.589a12.36,12.36,0,0,0,8.718-6.422q2.616-5.016.713-13.543a19.5,19.5,0,0,0-2.247-5.858,13.576,13.576,0,0,0-3.527-3.99,11.087,11.087,0,0,0-4.532-2,12.617,12.617,0,0,0-5.295.151q-1.94.448-3.138.81c-.8.24-1.6.488-2.41.75q.084.385.352,1.7t.634,2.956l.731,3.278.611,2.733,2.172,9.725Z" transform="translate(352.577 12.881)"/>
                <path id="Path_172" data-name="Path 172" d="M477.608,18.869q-.762-3.531-1.638-7.07c.627-.042,1.311-.106,2.048-.187s1.554-.209,2.459-.38,1.715-.355,2.432-.546,1.374-.384,1.976-.571q.445,3.621.988,7.19t1.387,8.145l1.379,7.49q.843,4.571,1.606,8.1t1.608,6.9a16.853,16.853,0,0,0-2.03.273q-1.091.2-2.448.462c-.905.171-1.719.324-2.446.464a16.409,16.409,0,0,0-1.99.489q-.412-3.455-.957-7.03t-1.39-8.143l-1.376-7.489q-.843-4.571-1.606-8.1" transform="translate(378.911 8.287)"/>
                <path id="Path_173" data-name="Path 173" d="M523.15,9.64a13.352,13.352,0,0,0-11.473,1.226,12.976,12.976,0,0,0-3.969,3.9,16.907,16.907,0,0,0-2.378,5.866,22.268,22.268,0,0,0-.115,7.8A20.408,20.408,0,0,0,507,34.451a14.883,14.883,0,0,0,3.3,4.525,11.88,11.88,0,0,0,4.625,2.634,13.171,13.171,0,0,0,5.8.337c.474-.069,1.008-.178,1.6-.318s1.169-.3,1.726-.451a11.66,11.66,0,0,0,1.518-.537,3.63,3.63,0,0,0,.979-.568,12.552,12.552,0,0,0-.1-1.683c-.077-.666-.172-1.408-.289-2.22q-.644-4.492-1.112-6.6c-.313-1.406-.525-2.369-.634-2.88a13.428,13.428,0,0,0,1.478-.018q.914-.049,2.61-.3,1.972-.289,2.919-.513a14.316,14.316,0,0,0,1.476-.415,10.259,10.259,0,0,0,.016,1.468q.056,1.012.192,2.322c.084.873.19,1.8.313,2.785s.248,1.914.373,2.8l.259,1.832c.135.922.266,1.779.4,2.574a10.059,10.059,0,0,0,.375,1.667,62.059,62.059,0,0,1-7.068,2.738,45.953,45.953,0,0,1-7.222,1.683,29.18,29.18,0,0,1-8.853.024,19.9,19.9,0,0,1-7.364-2.656A17.156,17.156,0,0,1,499,37.52a17.918,17.918,0,0,1-2.714-7.443,23.274,23.274,0,0,1,.408-9.483,18.475,18.475,0,0,1,3.817-7.3,20.586,20.586,0,0,1,6.631-5.016,29.654,29.654,0,0,1,8.786-2.651,26.825,26.825,0,0,1,7.321-.193,29.4,29.4,0,0,1,6.346,1.585q-.232,1.509-.445,2.951c-.14.964-.234,1.945-.28,2.929l-.763.111A13.783,13.783,0,0,0,523.15,9.64" transform="translate(394.849 4.317)"/>
                <path id="Path_174" data-name="Path 174" d="M530.237,10.748q-.469-3.581-1.047-7.185c.632.009,1.316.007,2.055-.011s1.57-.075,2.484-.167,1.739-.2,2.468-.338,1.4-.26,2.017-.4q.14,3.646.384,7.252t.7,8.234l.751,7.581q.455,4.626.925,8.209T542,40.94a17.7,17.7,0,0,0-2.044.095l-2.477.255c-.916.087-1.744.173-2.479.247a18,18,0,0,0-2.024.318q-.118-3.477-.366-7.083t-.7-8.231l-.751-7.583q-.455-4.628-.921-8.211" transform="translate(421.278 2.168)"/>
                <path id="Path_175" data-name="Path 175" d="M557.8,7.8a14.674,14.674,0,0,0-.25-1.95q-.83.049-2.04.178c-.806.086-1.672.184-2.588.291s-1.852.242-2.8.393-1.828.3-2.629.464c.048-.417.086-.828.12-1.244a8.82,8.82,0,0,0,.013-1.232,9.131,9.131,0,0,0-.156-1.226c-.079-.408-.162-.813-.262-1.219,1.255-.038,2.387-.065,3.4-.087s2.046-.058,3.1-.1,2.188-.091,3.423-.147,2.717-.131,4.447-.235,3.211-.2,4.443-.289,2.362-.175,3.391-.26,2.031-.164,3-.258,2.031-.195,3.168-.3c-.05.413-.088.83-.122,1.241a9.181,9.181,0,0,0-.013,1.237,9.431,9.431,0,0,0,.156,1.223c.079.408.163.813.262,1.219q-1.115-.1-2.5-.162c-.925-.035-1.841-.058-2.746-.06s-1.766,0-2.576.011-1.493.033-2.046.065a6.283,6.283,0,0,0-.039.791c0,.333.014.73.041,1.173l.171,2.966.807,13.98q.267,4.642.587,8.24t.738,7.056a17.6,17.6,0,0,0-2.049.011c-.735.045-1.564.091-2.482.147s-1.749.1-2.488.146a17.383,17.383,0,0,0-2.033.235q.019-3.48-.079-7.1t-.365-8.253L558,10.76c-.059-1.081-.128-2.07-.2-2.962" transform="translate(435.621 0.469)"/>
                <path id="Path_176" data-name="Path 176" d="M607.233,38.663c-.884-.069-1.726-.1-2.516-.095s-1.579.009-2.353.015-1.557.013-2.347.015-1.577.049-2.349.129q-.905-2.74-1.863-5.591t-2.03-5.7c-1.176-.027-2.358-.047-3.538-.062s-2.36-.009-3.54,0c-.959.009-1.916.022-2.875.047s-1.918.062-2.874.1q-1.091,2.863-2.012,5.729t-1.678,5.613a8,8,0,0,0-1.3-.106c-.426.005-.858.007-1.3.011s-.887,0-1.329.007a10.213,10.213,0,0,0-1.437.124q.657-1.46,1.744-4.046t2.4-5.842q1.309-3.258,2.8-6.992t2.991-7.556q1.5-3.821,2.94-7.527T587.406.027c.368.071.72.135,1.052.189a6.472,6.472,0,0,0,1.051.078A6.745,6.745,0,0,0,590.561.2c.329-.058.679-.127,1.047-.2q1.8,4.751,3.854,10.172T599.6,20.815q2.077,5.223,4.047,9.917t3.59,7.931M587.476,10.84q-1.417,3.368-2.667,6.655t-2.446,6.713l10.119-.067q-1.239-3.411-2.446-6.681t-2.56-6.621" transform="translate(455.274)"/>
                <path id="Path_177" data-name="Path 177" d="M605.3,7.8q.086-3.613.07-7.263.927.166,2.03.315c.735.1,1.563.169,2.479.224s1.753.069,2.491.055,1.424-.036,2.055-.078q-.42,3.624-.731,7.225t-.566,8.242l-.419,7.607c-.118,2.125-.221,4.181-.314,6.157s-.156,3.691-.2,5.149q3.147.177,6.3.189t6.381-.2c-.1.408-.172.775-.228,1.11a17.628,17.628,0,0,0-.154,2.8,4.172,4.172,0,0,0,.12.846q-1.487-.142-3.666-.289c-1.455-.106-3.452-.224-5.99-.369q-3.368-.194-5.466-.309l-3.289-.186c-.828-.047-1.455-.075-1.879-.078s-.783,0-1.081.02q.41-3.452.722-7.056t.566-8.242l.42-7.607c.172-3.1.287-5.846.345-8.258" transform="translate(480.235 0.444)"/>
                <path id="Path_178" data-name="Path 178" d="M451.141,53.075a5.841,5.841,0,0,0-3.736,2.372,4.931,4.931,0,0,0,1.106,6.837,13.031,13.031,0,0,0,3.556,1.65q2.058.639,4.373,1.128a20.656,20.656,0,0,1,4.451,1.481,12.3,12.3,0,0,1,3.784,2.716A9.856,9.856,0,0,1,467,74.107a12.315,12.315,0,0,1,.052,5.238,11.284,11.284,0,0,1-2.08,4.528,13.429,13.429,0,0,1-3.982,3.462,19.516,19.516,0,0,1-5.679,2.147,20.272,20.272,0,0,1-5.349.52,10.117,10.117,0,0,1-3.822-.786q.129-2.039.163-3.706t-.1-3.591l1.029-.227a7.235,7.235,0,0,0,1.3,2.092,7.34,7.34,0,0,0,1.92,1.554,6.691,6.691,0,0,0,2.491.793,8.729,8.729,0,0,0,3.017-.178,6.456,6.456,0,0,0,4.427-2.7,5.694,5.694,0,0,0,.69-4.279,4.964,4.964,0,0,0-1.918-3.131,12.159,12.159,0,0,0-3.474-1.668c-1.336-.411-2.775-.784-4.314-1.11a20.223,20.223,0,0,1-4.4-1.465,12.042,12.042,0,0,1-3.7-2.707,10.083,10.083,0,0,1-2.29-4.856,12.3,12.3,0,0,1-.086-5.258,11.1,11.1,0,0,1,1.884-4.256,11.915,11.915,0,0,1,3.378-3.1,14.207,14.207,0,0,1,4.454-1.788,16.806,16.806,0,0,1,5.259-.418,11.988,11.988,0,0,1,4.181,1.137q-.216,1.37-.313,2.62c-.066.839-.147,1.9-.25,3.184l-.808.176q-2.745-4.32-7.552-3.258" transform="translate(350.804 40.277)"/>
                <path id="Path_179" data-name="Path 179" d="M474.636,52.771a13.833,13.833,0,0,0-.478-1.9c-.544.1-1.211.24-2,.42s-1.636.384-2.534.606-1.809.462-2.737.724-1.782.522-2.558.777c0-.415-.007-.831-.025-1.246a9.033,9.033,0,0,0-.135-1.23,8.825,8.825,0,0,0-.295-1.2c-.126-.393-.262-.786-.4-1.179,1.237-.187,2.362-.351,3.366-.5s2.028-.3,3.062-.471,2.166-.358,3.386-.562,2.68-.455,4.386-.768,3.165-.584,4.377-.824,2.324-.458,3.337-.664,2-.411,2.953-.622l3.113-.679c0,.418,0,.833.023,1.25a9.022,9.022,0,0,0,.131,1.224,9.8,9.8,0,0,0,.3,1.2c.126.4.264.79.408,1.181-.749.018-1.579.065-2.5.14s-1.836.164-2.732.271-1.755.213-2.558.318-1.48.215-2.022.313a5.51,5.51,0,0,0,.054.786c.04.337.1.724.178,1.163l.517,2.922L485.682,68q.811,4.585,1.548,8.118t1.564,6.914a17.155,17.155,0,0,0-2.037.258c-.722.133-1.539.278-2.446.444s-1.724.315-2.45.444a17.961,17.961,0,0,0-1.994.477q-.391-3.458-.911-7.034t-1.333-8.151l-2.443-13.787c-.187-1.066-.37-2.036-.546-2.916" transform="translate(368.957 35.605)"/>
                <path id="Path_180" data-name="Path 180" d="M525.445,76.653c-.889.049-1.724.131-2.509.24l-2.328.326c-.767.107-1.541.216-2.329.326s-1.555.255-2.315.437q-1.245-2.6-2.561-5.3T510.657,67.3c-1.175.131-2.349.264-3.518.409s-2.342.3-3.51.464c-.95.129-1.9.275-2.847.424s-1.891.317-2.836.484q-.711,2.98-1.254,5.942t-.943,5.791a6.974,6.974,0,0,0-1.3.067c-.42.058-.848.115-1.286.18s-.876.122-1.316.184a9.761,9.761,0,0,0-1.408.311q.463-1.536,1.209-4.245t1.62-6.106q.878-3.406,1.879-7.3t2-7.883q.986-3.987,1.942-7.852t1.726-7.2c.375.025.729.042,1.069.051a6.379,6.379,0,0,0,1.051-.064,6.3,6.3,0,0,0,1.031-.229c.322-.1.659-.213,1.015-.338q2.4,4.47,5.131,9.574t5.466,10.008q2.734,4.9,5.289,9.3t4.582,7.388M502.271,51.677q-.967,3.534-1.787,6.952t-1.557,6.977l10.02-1.4q-1.665-3.215-3.285-6.3t-3.391-6.228" transform="translate(390.428 33.091)"/>
                <path id="Path_181" data-name="Path 181" d="M537.266,50.889q.916-2.134,1.758-4.468c.559-1.548,1.1-3.113,1.624-4.679s1.035-3.071,1.536-4.5c.41.035.828.064,1.255.08a10.446,10.446,0,0,0,1.3-.038,9.878,9.878,0,0,0,1.286-.207c.415-.093.86-.2,1.331-.322q-.792,1.654-1.967,4.323t-2.5,5.776q-1.325,3.1-2.669,6.355T537.8,59.193c.083.9.147,1.8.194,2.711s.109,1.843.2,2.769q.259,2.846.6,5.625t1,5.813q-1.166,0-2.351.111c-.79.071-1.57.146-2.34.217s-1.552.147-2.34.22-1.566.186-2.331.331q-.121-2.574-.092-5.282a53.619,53.619,0,0,0-.216-5.378c-.077-.855-.167-1.717-.264-2.591s-.2-1.736-.32-2.587q-1.63-2.658-3.736-5.922t-4.075-6.342q-1.98-3.076-3.621-5.565t-2.412-3.6c.851,0,1.683-.015,2.495-.035s1.64-.069,2.488-.149,1.656-.186,2.441-.313,1.595-.271,2.435-.426c.747,1.319,1.593,2.773,2.536,4.374s1.872,3.162,2.788,4.689,1.769,2.913,2.547,4.15,1.4,2.16,1.863,2.753l.11-.011a42.858,42.858,0,0,0,1.87-3.863" transform="translate(410.535 30.111)"/>
                <path id="Path_182" data-name="Path 182" d="M583.512,38.359a5.8,5.8,0,0,0-4.161,1.474,4.928,4.928,0,0,0-.426,6.912,13.074,13.074,0,0,0,3.1,2.414c1.245.72,2.586,1.415,4.014,2.083a20.8,20.8,0,0,1,4.014,2.449,12.328,12.328,0,0,1,3.093,3.5,9.952,9.952,0,0,1,1.2,5.253,12.326,12.326,0,0,1-1.1,5.114,11.225,11.225,0,0,1-3.023,3.946,13.279,13.279,0,0,1-4.641,2.476,19.4,19.4,0,0,1-6.01.811,20.115,20.115,0,0,1-5.329-.695,10.278,10.278,0,0,1-3.554-1.628q.574-1.957.975-3.577c.269-1.083.5-2.254.7-3.528l1.051.013a7.483,7.483,0,0,0,2.34,4.283A6.809,6.809,0,0,0,578.005,71a8.877,8.877,0,0,0,2.983.506,6.429,6.429,0,0,0,4.909-1.636,5.671,5.671,0,0,0,1.613-4.019,4.989,4.989,0,0,0-1.182-3.484,12.161,12.161,0,0,0-3.019-2.409q-1.819-1.056-3.964-2.056a20.162,20.162,0,0,1-3.959-2.42A11.987,11.987,0,0,1,572.377,52a10.1,10.1,0,0,1-1.166-5.249,12.234,12.234,0,0,1,1.069-5.142,11.047,11.047,0,0,1,2.775-3.73,11.821,11.821,0,0,1,3.973-2.258,14.19,14.19,0,0,1,4.736-.739,17,17,0,0,1,5.221.777,12.088,12.088,0,0,1,3.824,2.058c-.34.853-.634,1.683-.878,2.482s-.562,1.816-.945,3.044l-.826-.007q-1.73-4.833-6.647-4.881" transform="translate(454.316 28.585)"/>
                <path id="Path_183" data-name="Path 183" d="M595.59,54.535A19.962,19.962,0,0,1,597.73,46.9a19.364,19.364,0,0,1,4.783-6.013,19.682,19.682,0,0,1,7.015-3.75,23.316,23.316,0,0,1,8.833-.846,26.673,26.673,0,0,1,8.113,1.9,18.744,18.744,0,0,1,6.32,4.23,17.257,17.257,0,0,1,3.939,6.593,22.132,22.132,0,0,1,.918,8.926,19.564,19.564,0,0,1-7.06,13.667,19.674,19.674,0,0,1-6.981,3.668,23.221,23.221,0,0,1-8.61.81,29.851,29.851,0,0,1-8.1-1.767,17.413,17.413,0,0,1-6.385-4.068,17.051,17.051,0,0,1-4-6.564,22.48,22.48,0,0,1-.929-9.157m33.118,1.494a22.3,22.3,0,0,0-.359-6.577,15.024,15.024,0,0,0-2.062-5.087,10.774,10.774,0,0,0-3.554-3.411,11.042,11.042,0,0,0-4.792-1.494,9.462,9.462,0,0,0-5.151.953,12.074,12.074,0,0,0-4.077,3.4,17.992,17.992,0,0,0-2.782,5.305,27.354,27.354,0,0,0-1.342,6.663,26.318,26.318,0,0,0,.332,7.616,13.75,13.75,0,0,0,2.139,5.151,9.489,9.489,0,0,0,3.475,3.011,11.842,11.842,0,0,0,4.345,1.2,11,11,0,0,0,4.824-.671,10.693,10.693,0,0,0,4.2-2.913,17.171,17.171,0,0,0,3.145-5.305,27.54,27.54,0,0,0,1.658-7.845" transform="translate(474.058 29.658)"/>
                <path id="Path_184" data-name="Path 184" d="M659.819,77.8a13.681,13.681,0,0,0-.846,2.265,24.611,24.611,0,0,1-11.508.253,25.216,25.216,0,0,1-8.226-2.882,18.268,18.268,0,0,1-5.645-4.947,16.77,16.77,0,0,1-2.922-6.533,19.562,19.562,0,0,1-.077-7.525,24.25,24.25,0,0,1,3.484-9.415,17.942,17.942,0,0,1,5.884-5.651,18.9,18.9,0,0,1,7.535-2.418,29.076,29.076,0,0,1,8.424.326,21.816,21.816,0,0,1,2.955.762q1.539.508,2.947,1.132a25.663,25.663,0,0,1,2.653,1.361,14.14,14.14,0,0,1,2.074,1.455,17.64,17.64,0,0,0-1.334,2.633,21.3,21.3,0,0,0-.907,2.765l-.763-.138a13.876,13.876,0,0,0-3.58-4.545,11.163,11.163,0,0,0-4.919-2.054,10.7,10.7,0,0,0-4.559.2,11.847,11.847,0,0,0-4.533,2.311,15.7,15.7,0,0,0-3.833,4.683,23.217,23.217,0,0,0-2.455,7.381,20.806,20.806,0,0,0-.133,7.459,14.706,14.706,0,0,0,2.1,5.445,11.474,11.474,0,0,0,3.648,3.531,13.293,13.293,0,0,0,4.5,1.727,12.405,12.405,0,0,0,2.723.176,17.142,17.142,0,0,0,2.815-.342,13.978,13.978,0,0,0,2.7-.848,11.264,11.264,0,0,0,2.344-1.341l.632.568c-.427.722-.822,1.455-1.178,2.207" transform="translate(501.745 33.411)"/>
                <path id="Path_185" data-name="Path 185" d="M667.183,52.989q.838-3.515,1.573-7.086c.585.24,1.225.489,1.924.74s1.491.5,2.378.748,1.7.44,2.421.586,1.4.264,2.024.357q-1.161,3.452-2.213,6.91t-2.261,7.938l-1.99,7.348q-1.213,4.487-2.053,8t-1.527,6.921a17.31,17.31,0,0,0-1.943-.655q-1.072-.3-2.4-.668c-.891-.247-1.688-.468-2.4-.668a17.053,17.053,0,0,0-2-.438q1.115-3.294,2.168-6.746t2.265-7.938l1.988-7.35q1.215-4.484,2.049-8" transform="translate(524.389 37.611)"/>
                <path id="Path_186" data-name="Path 186" d="M707.318,97.679c-.8-.4-1.557-.755-2.3-1.053s-1.46-.595-2.182-.886-1.446-.588-2.179-.888-1.477-.56-2.224-.784q.186-2.879.367-5.884t.255-6.057q-1.624-.718-3.255-1.415t-3.274-1.357q-1.334-.549-2.678-1.061t-2.7-1.006q-2.083,2.232-4,4.53c-1.282,1.528-2.5,3.049-3.653,4.548a8.059,8.059,0,0,0-1.162-.593c-.4-.16-.8-.324-1.209-.489s-.823-.335-1.23-.5a10.037,10.037,0,0,0-1.378-.44c.765-.731,1.812-1.757,3.125-3.075s2.784-2.811,4.4-4.49,3.353-3.473,5.207-5.394,3.718-3.872,5.593-5.846,3.721-3.921,5.534-5.84,3.486-3.713,5.024-5.38c.312.207.614.4.9.577a6.894,6.894,0,0,0,1.952.793c.327.075.677.147,1.047.213q-.111,5.09-.235,10.894t-.151,11.437q-.03,5.633.038,10.731t.359,8.717m-7.889-33.327q-2.568,2.576-4.957,5.136t-4.77,5.274l9.392,3.819q.129-3.63.23-7.121t.106-7.108" transform="translate(536.974 44.506)"/>
                <path id="Path_187" data-name="Path 187" d="M718.751,71.594q1.762-3.141,3.441-6.371c.5.4,1.047.808,1.647,1.248s1.295.9,2.083,1.383,1.509.9,2.168,1.243,1.273.64,1.848.908q-2.058,3-4.009,6.02t-4.338,7l-3.916,6.506q-1.635,2.726-3.139,5.276t-2.577,4.448q2.694,1.657,5.473,3.178t5.717,2.871c-.275.313-.512.6-.719.868s-.46.66-.765,1.168-.533.919-.674,1.224a4.177,4.177,0,0,0-.287.81c-.833-.56-1.864-1.228-3.1-2.012s-2.935-1.843-5.106-3.188q-2.888-1.777-4.677-2.884c-1.166-.722-2.1-1.3-2.813-1.734s-1.247-.76-1.618-.972-.693-.371-.964-.493q1.972-2.849,3.923-5.878t4.339-7l3.914-6.506q2.387-3.973,4.149-7.117" transform="translate(559.188 53.442)"/>
                <path id="Path_188" data-name="Path 188" d="M757.7,110.453q3.974-2.32,7.016-4.219t6.04-3.908q.374.882.855,1.894t1.168,2.227q.91,1.6,2.162,3.522t3.066,5.125a41.037,41.037,0,0,1,3.576,8.038,18.173,18.173,0,0,1,.832,7.365,13.684,13.684,0,0,1-2.59,6.613,24.255,24.255,0,0,1-14.726,8.615,18.86,18.86,0,0,1-7.558-.444,17.86,17.86,0,0,1-6.511-3.317,19.917,19.917,0,0,1-4.876-5.784q-2.069-3.643-3.484-6.242t-2.491-4.5c-.456-.806-.871-1.536-1.238-2.185a18.144,18.144,0,0,0-1.115-1.739q3.079-1.539,6.227-3.242t7.129-4.023Zm-5.94,13.023-2.876,1.676q-1.393.811-2.527,1.5t-1.473.892c.246.5.542,1.106.9,1.8s.815,1.55,1.385,2.553a12.379,12.379,0,0,0,8.628,6.544q5.512,1.048,12.987-3.306a19.187,19.187,0,0,0,4.867-3.9,13.783,13.783,0,0,0,2.721-4.59,11.441,11.441,0,0,0,.555-4.976,13.064,13.064,0,0,0-1.706-5.085q-.992-1.747-1.685-2.8t-1.422-2.112c-.223.133-.724.411-1.5.842s-1.647.926-2.606,1.485l-2.872,1.674-2.4,1.4-8.531,4.974Z" transform="translate(587.371 83.843)"/>
                <path id="Path_189" data-name="Path 189" d="M780.894,138.232q3.454-.914,6.906-1.947.105.952.273,2.065c.106.74.268,1.563.472,2.476s.419,1.723.636,2.438.435,1.374.648,1.978q-3.556.589-7.057,1.29t-7.976,1.737l-7.333,1.7q-4.472,1.037-7.926,1.954t-6.742,1.912a17.545,17.545,0,0,0-.352-2.047c-.162-.728-.348-1.546-.553-2.456s-.393-1.732-.555-2.458a17.594,17.594,0,0,0-.568-2q3.392-.559,6.9-1.254t7.975-1.739l7.332-1.7q4.475-1.034,7.926-1.956" transform="translate(597.671 111.667)"/>
                <path id="Path_190" data-name="Path 190" d="M786.885,188.243a13.484,13.484,0,0,0-1.94-16.343,16.633,16.633,0,0,0-5.216-3.508,21.4,21.4,0,0,0-7.529-1.641,19.618,19.618,0,0,0-6.181.6,14.651,14.651,0,0,0-5.029,2.391,12.075,12.075,0,0,0-3.45,4.077,13.684,13.684,0,0,0-1.462,5.7c-.029.484-.027,1.039,0,1.652s.054,1.221.1,1.8a12.157,12.157,0,0,0,.221,1.612,3.636,3.636,0,0,0,.359,1.083,12.354,12.354,0,0,0,1.649.231q.992.079,2.207.146,4.475.24,6.61.189c1.421-.035,2.39-.06,2.91-.069a14.7,14.7,0,0,0-.271,1.472c-.088.611-.162,1.5-.221,2.651q-.108,2.019-.074,3a14.027,14.027,0,0,0,.113,1.548,10.331,10.331,0,0,0-1.428-.273q-.989-.134-2.281-.264t-2.759-.231c-.977-.073-1.907-.129-2.788-.176l-1.823-.1c-.921-.049-1.78-.086-2.569-.111a9.758,9.758,0,0,0-1.694.053,65.294,65.294,0,0,1-1.264-7.558,46.987,46.987,0,0,1-.217-7.5,30.144,30.144,0,0,1,1.708-8.8,20.189,20.189,0,0,1,4.013-6.8,16.941,16.941,0,0,1,6.038-4.275,17.24,17.24,0,0,1,7.732-1.241,22.388,22.388,0,0,1,9.1,2.258,18.183,18.183,0,0,1,6.317,5.218,20.929,20.929,0,0,1,3.565,7.57,30.828,30.828,0,0,1,.844,9.242,28.01,28.01,0,0,1-1.241,7.312,30.5,30.5,0,0,1-2.779,5.995q-1.414-.527-2.773-1.019a28.406,28.406,0,0,0-2.779-.853l.043-.781a13.85,13.85,0,0,0,4.237-4.261" transform="translate(599.285 129.075)"/>
                <path id="Path_191" data-name="Path 191" d="M780.476,198.28q3.462.881,6.98,1.672c-.244.589-.494,1.237-.749,1.936s-.51,1.5-.763,2.4-.454,1.712-.6,2.447-.275,1.414-.375,2.047q-3.4-1.217-6.8-2.316t-7.813-2.378L763.122,202q-4.413-1.277-7.874-2.165t-6.818-1.621a17.135,17.135,0,0,0,.668-1.961c.207-.72.431-1.532.684-2.427s.485-1.7.682-2.423a16.284,16.284,0,0,0,.456-2.023q3.241,1.165,6.638,2.267t7.813,2.382l7.229,2.092q4.413,1.277,7.874,2.163" transform="translate(595.811 155.168)"/>
                <path id="Path_192" data-name="Path 192" d="M773.043,223.817a13.875,13.875,0,0,0,1.818.691c.228-.513.5-1.146.8-1.91s.623-1.579.957-2.453.657-1.768.972-2.689.593-1.781.83-2.576c.338.24.677.469,1.027.693a8.5,8.5,0,0,0,1.069.588,9.226,9.226,0,0,0,1.142.438c.39.118.787.229,1.187.333-.555,1.137-1.061,2.169-1.516,3.086s-.911,1.859-1.365,2.818-.946,2-1.48,3.137-1.155,2.489-1.875,4.088-1.331,2.966-1.828,4.112-.952,2.2-1.365,3.153-.807,1.9-1.182,2.813-.78,1.909-1.219,2.975c-.339-.237-.682-.468-1.029-.69a8.8,8.8,0,0,0-1.072-.589,8.709,8.709,0,0,0-1.141-.437q-.584-.18-1.185-.335c.408-.631.844-1.355,1.311-2.163s.914-1.621,1.342-2.429.828-1.581,1.2-2.309.673-1.355.9-1.863a5.364,5.364,0,0,0-.668-.4c-.3-.162-.643-.329-1.043-.517l-2.667-1.234-12.571-5.833q-4.176-1.935-7.461-3.337t-6.5-2.645a17.926,17.926,0,0,0,.952-1.836c.305-.682.654-1.445,1.035-2.294s.731-1.612,1.035-2.291a17.443,17.443,0,0,0,.753-1.932q3.028,1.651,6.224,3.253t7.369,3.542l12.574,5.831c.97.453,1.863.853,2.676,1.21" transform="translate(589.44 172.051)"/>
                <path id="Path_193" data-name="Path 193" d="M724.455,255.958c.533-.72,1.008-1.423,1.431-2.1s.835-1.354,1.248-2.02.828-1.334,1.25-2.016.808-1.372,1.155-2.074q2.764.7,5.654,1.41t5.835,1.324q.986-1.482,1.952-2.989t1.9-3.024c.512-.822,1.01-1.648,1.5-2.48s.982-1.674,1.458-2.511q-1.8-2.47-3.691-4.8t-3.772-4.448a7.4,7.4,0,0,0,.781-1.057c.227-.36.458-.733.693-1.113s.47-.759.706-1.141a10.289,10.289,0,0,0,.67-1.292q.862,1.343,2.434,3.664t3.576,5.185q2.015,2.863,4.321,6.146t4.684,6.617q2.376,3.327,4.69,6.552t4.339,5.962c-.26.275-.5.544-.722.8a6,6,0,0,0-.628.857,6.174,6.174,0,0,0-.489.948c-.131.315-.264.648-.4,1.006q-4.925-1.015-10.538-2.167t-11.089-2.183q-5.461-1.029-10.432-1.867t-8.531-1.19m33.781-1.947q-2.045-3.018-4.113-5.853t-4.273-5.693l-5.378,8.686q3.5.767,6.875,1.49t6.888,1.37" transform="translate(576.725 184.875)"/>
                <path id="Path_194" data-name="Path 194" d="M747.548,271q2.872,2.145,5.83,4.225-.665.677-1.419,1.506t-1.6,1.927c-.569.733-1.061,1.414-1.476,2.034s-.783,1.2-1.114,1.75q-2.689-2.432-5.419-4.756t-6.34-5.2l-5.911-4.716q-2.473-1.973-4.8-3.79t-4.048-3.124q-1.948,2.511-3.772,5.122t-3.5,5.407q-.409-.467-.767-.824a12.6,12.6,0,0,0-1.052-.908,12.4,12.4,0,0,0-1.121-.826,4.189,4.189,0,0,0-.754-.388q.97-1.152,2.34-2.873t3.734-4.758q2.091-2.685,3.393-4.357,1.263-1.629,2.031-2.62c.514-.657.9-1.163,1.144-1.514s.451-.651.6-.912q2.559,2.328,5.293,4.652t6.339,5.2l5.909,4.714q3.6,2.879,6.477,5.025" transform="translate(565.447 205.996)"/>
              </g>
            </g>
          </g>
        </g>
      </g>
    </g>
  </g>
</svg>
