<svg xmlns="http://www.w3.org/2000/svg" width="20.001" height="20" viewBox="0 0 20.001 20"><g transform="translate(0)"><rect width="20" height="20" fill="rgba(253,73,198,0.35)" opacity="0"/><g transform="translate(0.833 2.491)"><path d="M13.732,1.658a4.566,4.566,0,0,1,3.045,1.163,8.234,8.234,0,0,0,1.909-1,.833.833,0,0,1,1.29.878,7.257,7.257,0,0,1-1.663,3.145c.012.134.019.269.019.4a12.047,12.047,0,0,1-3.45,8.848,11.332,11.332,0,0,1-8.007,3.183A13.339,13.339,0,0,1,.428,16.561.833.833,0,0,1,.866,15c.118,0,.237.007.355.007a8.83,8.83,0,0,0,3.709-.812A7.96,7.96,0,0,1,.939,7.538a11.032,11.032,0,0,1,.8-4.543.833.833,0,0,1,1.443-.14,8.059,8.059,0,0,0,5.984,3.4,4.568,4.568,0,0,1,4.566-4.6Zm2.818,2.95a.833.833,0,0,1-.629-.286,2.9,2.9,0,0,0-5.088,1.942s0,.007,0,.011v.833a.833.833,0,0,1-.812.833,9.728,9.728,0,0,1-7.183-2.9,9.092,9.092,0,0,0-.232,2.479c.14,2.673,1.62,4.654,4.4,5.89a.833.833,0,0,1,.129,1.451,10.523,10.523,0,0,1-2.994,1.406,11.111,11.111,0,0,0,2.736.348c4.715,0,9.79-3.242,9.79-10.361a2.9,2.9,0,0,0-.052-.534.833.833,0,0,1,.234-.752,5.585,5.585,0,0,0,.515-.583q-.283.1-.573.192A.833.833,0,0,1,16.55,4.608Z" transform="translate(-0.833 -2.491)" fill="#3f3f3f"/></g></g></svg>