<svg xmlns="http://www.w3.org/2000/svg" width="20.002" height="20" viewBox="0 0 20.002 20"><g transform="translate(0.001)"><rect width="20" height="20" fill="rgba(253,73,198,0.35)" opacity="0"/><g transform="translate(1.667 1.667)"><path d="M10,2.5a56.637,56.637,0,0,1,7.365.374l.029.008a3.157,3.157,0,0,1,2.2,2.267q.007.027.012.054A25.049,25.049,0,0,1,20,9.793a25.032,25.032,0,0,1-.4,4.522q0,.027-.012.054a3.156,3.156,0,0,1-2.2,2.266l-.012,0A51.676,51.676,0,0,1,10,17.05a51.676,51.676,0,0,1-7.383-.412,3.17,3.17,0,0,1-2.2-2.177Q.4,14.422.4,14.381A25.027,25.027,0,0,1,0,9.791,25.041,25.041,0,0,1,.4,5.235q0-.027.012-.054a3.156,3.156,0,0,1,2.2-2.266l.012,0A51.676,51.676,0,0,1,10,2.5Zm6.954,1.989A56.706,56.706,0,0,0,10,4.166a49.924,49.924,0,0,0-6.945.354A1.486,1.486,0,0,0,2.032,5.561a23.375,23.375,0,0,0-.365,4.227s0,.006,0,.009a23.359,23.359,0,0,0,.363,4.243,1.492,1.492,0,0,0,1.024.989A49.747,49.747,0,0,0,10,15.384a49.924,49.924,0,0,0,6.945-.354,1.486,1.486,0,0,0,1.023-1.041,23.363,23.363,0,0,0,.365-4.194s0-.005,0-.008a23.38,23.38,0,0,0-.365-4.259A1.486,1.486,0,0,0,16.954,4.489Z" transform="translate(-1.667 -1.667)" fill="#3f3f3f"/><path d="M8.125,13.35a.833.833,0,0,1-.833-.833V7.067a.833.833,0,0,1,1.245-.724l4.792,2.725a.833.833,0,0,1,0,1.449L8.537,13.241A.833.833,0,0,1,8.125,13.35ZM8.958,8.5v2.585l2.273-1.292Z" transform="translate(-1.667 -1.667)" fill="#3f3f3f"/></g></g></svg>